<svg xmlns="http://www.w3.org/2000/svg" width="17" height="14" viewBox="0 0 17 14">
    <g fill="none" fill-rule="evenodd" transform="translate(-8 -10)">
        <circle cx="16" cy="16" r="16"/>
        <path d="M8 8h16.333v16.333H8z"/>
        <path fill="#55ACEE" d="M15.93 13.59l.036.584-.59-.071c-2.148-.274-4.024-1.203-5.618-2.764l-.778-.775-.201.572c-.425 1.275-.154 2.621.732 3.527.472.5.365.572-.449.274-.283-.095-.53-.167-.555-.131-.082.083.201 1.168.425 1.596.307.596.933 1.18 1.617 1.526l.578.274-.684.011c-.66 0-.685.012-.614.263.236.774 1.169 1.596 2.207 1.954l.732.25-.637.381a6.645 6.645 0 0 1-3.163.882c-.531.012-.968.06-.968.095 0 .12 1.44.786 2.278 1.049 2.514.774 5.5.44 7.742-.882 1.593-.941 3.186-2.812 3.93-4.623.4-.965.802-2.728.802-3.574 0-.548.036-.62.696-1.275.39-.382.756-.799.827-.918.118-.226.106-.226-.496-.023-1.003.357-1.145.31-.65-.227.367-.381.803-1.072.803-1.275 0-.035-.177.024-.377.131-.213.12-.685.298-1.039.405l-.637.203-.578-.393c-.32-.215-.768-.453-1.004-.524-.601-.167-1.522-.143-2.065.047-1.475.536-2.407 1.918-2.301 3.432z"/>
    </g>
</svg>
