<svg xmlns="http://www.w3.org/2000/svg" width="17" height="17" viewBox="0 0 17 17">
    <g fill="none" fill-rule="evenodd" transform="translate(-8 -8)">
        <circle cx="16" cy="16" r="16"/>
        <path fill="#4967AC" d="M16.724 24.333H8.901A.901.901 0 0 1 8 23.432V8.902C8 8.403 8.404 8 8.901 8h14.53c.499 0 .902.404.902.901v14.53a.902.902 0 0 1-.901.902H19.27v-6.325h2.123l.318-2.465H19.27V13.97c0-.713.198-1.2 1.221-1.2h1.306v-2.205c-.226-.03-1-.097-1.902-.097-1.882 0-3.17 1.149-3.17 3.258v1.818h-2.13v2.465h2.13v6.325z"/>
    </g>
</svg>
