<svg xmlns="http://www.w3.org/2000/svg" width="17" height="14" viewBox="0 0 17 14">
    <g fill="none" fill-rule="evenodd">
        <path d="M0-2h16.333v16.333H0z"/>
        <path fill="#55ACEE" d="M7.93 3.59l.036.584-.59-.071C5.228 3.829 3.352 2.9 1.758 1.339L.98.564l-.201.572C.354 2.411.625 3.757 1.51 4.663c.472.5.365.572-.449.274-.283-.095-.53-.167-.555-.131-.082.083.201 1.168.425 1.596.307.596.933 1.18 1.617 1.526l.578.274-.684.011c-.66 0-.685.012-.614.263.236.774 1.169 1.596 2.207 1.954l.732.25-.637.381a6.645 6.645 0 0 1-3.163.882c-.531.012-.968.06-.968.095 0 .12 1.44.786 2.278 1.049 2.514.774 5.5.44 7.742-.882 1.593-.941 3.186-2.812 3.93-4.623.4-.965.802-2.728.802-3.574 0-.548.036-.62.696-1.275.39-.382.756-.799.827-.918.118-.226.106-.226-.496-.023-1.003.357-1.145.31-.65-.227.367-.381.803-1.072.803-1.275 0-.035-.177.024-.377.131-.213.12-.685.298-1.039.405l-.637.203L13.3.636c-.32-.215-.768-.453-1.004-.524-.601-.167-1.522-.143-2.065.047-1.475.536-2.407 1.918-2.301 3.432z"/>
    </g>
</svg>
