<svg xmlns="http://www.w3.org/2000/svg" width="19" height="20" viewBox="0 0 19 20">
    <g fill="none" fill-rule="evenodd">
        <path d="M-3-3h25v25H-3z"/>
        <path fill="#5BC5FF" d="M7.5 3.964h4a2.5 2.5 0 0 0 2.45-2V1H17a2 2 0 0 1 2 2v13.464a3.5 3.5 0 0 1-3.5 3.5h-12a3.5 3.5 0 0 1-3.5-3.5V3a2 2 0 0 1 2-2h3.05v.964a2.5 2.5 0 0 0 2.45 2zm3.584 9.813L7.5 8.401l-1.584 2.376A.5.5 0 0 1 5.5 11h-2a.5.5 0 1 1 0-1h1.732l1.852-2.777a.5.5 0 0 1 .832 0l3.584 5.376 1.584-2.376A.5.5 0 0 1 13.5 10h2a.5.5 0 1 1 0 1h-1.732l-1.852 2.777a.5.5 0 0 1-.832 0zM7.5 0h4a1.5 1.5 0 0 1 0 3h-4a1.5 1.5 0 0 1 0-3z"/>
    </g>
</svg>
