<svg xmlns="http://www.w3.org/2000/svg" width="92" height="94" viewBox="0 0 92 94">
    <defs>
        <filter id="a" width="218.8%" height="218.8%" x="-70.6%" y="-41.9%" filterUnits="objectBoundingBox">
            <feOffset dx="-9" dy="14" in="SourceAlpha" result="shadowOffsetOuter1"/>
            <feGaussianBlur in="shadowOffsetOuter1" result="shadowBlurOuter1" stdDeviation="13.5"/>
            <feColorMatrix in="shadowBlurOuter1" result="shadowMatrixOuter1" values="0 0 0 0 0.77254902 0 0 0 0 0.847058824 0 0 0 0 0.988235294 0 0 0 0.500254755 0"/>
            <feMerge>
                <feMergeNode in="shadowMatrixOuter1"/>
                <feMergeNode in="SourceGraphic"/>
            </feMerge>
        </filter>
        <linearGradient id="b" x1="131.547%" x2="50%" y1="-64.29%" y2="112.55%">
            <stop offset="0%" stop-color="#DBE8FD"/>
            <stop offset="100%" stop-color="#ABC7FC"/>
        </linearGradient>
    </defs>
    <g fill="none" fill-rule="evenodd" filter="url(#a)" transform="translate(14 -9)">
        <path d="M16 16h50v50H16z"/>
        <path fill="url(#b)" d="M32 18h3a9 9 0 0 1 9 9v12a7 7 0 0 1-7 7H13a7 7 0 0 1-7-7V27a9 9 0 0 1 9-9h3v-2h14v2zm-1 12h-5v-5a1 1 0 0 0-2 0v5h-5a1 1 0 0 0 0 2h5v5a1 1 0 0 0 2 0v-5h5a1 1 0 0 0 0-2zM17 6h16a3 3 0 0 1 3 3v2a3 3 0 0 1-3 3H17a3 3 0 0 1-3-3V9a3 3 0 0 1 3-3z" transform="translate(16 16)"/>
    </g>
</svg>
