<svg xmlns="http://www.w3.org/2000/svg" width="15" height="21" viewBox="0 0 15 21">
    <g fill="none" fill-rule="evenodd">
        <path d="M-5-2h25v25H-5z"/>
        <path fill="#6AE2FF" fill-rule="nonzero" d="M13 8.5a5.5 5.5 0 0 1-11 0v-.55a1.5 1.5 0 0 0 .357.043h10.286c.123 0 .242-.015.357-.043v.55zm2 9v3a.5.5 0 0 1-.5.5H.5a.5.5 0 0 1-.5-.5v-3a4.502 4.502 0 0 1 3.05-4.261c.565.53 1.224.96 1.95 1.263V15a2.5 2.5 0 1 0 5 0v-.498a6.506 6.506 0 0 0 1.95-1.263A4.502 4.502 0 0 1 15 17.5zM7.5 15c.516 0 1.018-.06 1.5-.174V15a1.5 1.5 0 0 1-3 0v-.174c.482.114.984.174 1.5.174zM1.416 1.029l6-1.029h.169l6 1.029a.5.5 0 0 1 .408.577l-.857 4.972a.5.5 0 0 1-.493.415H2.357a.5.5 0 0 1-.493-.415l-.857-4.972a.5.5 0 0 1 .409-.577zM8 3v-.5a.5.5 0 1 0-1 0V3h-.5a.5.5 0 1 0 0 1H7v.5a.5.5 0 1 0 1 0V4h.5a.5.5 0 1 0 0-1H8z"/>
    </g>
</svg>
