<svg xmlns="http://www.w3.org/2000/svg" width="21" height="21" viewBox="0 0 21 21">
    <g fill="none" fill-rule="evenodd">
        <path d="M-2-2h25v25H-2z"/>
        <path fill="#9ADF55" fill-rule="nonzero" d="M16.358 17.96a.55.55 0 0 1-.069-.227c-.11-1.38-.748-2.096-2.013-2.28a.553.553 0 1 1 .16-1.094c1.786.26 2.804 1.402 2.955 3.286l.001.026c1.32-.138 2.359-1.312 2.359-2.75a2.87 2.87 0 0 0-.302-1.288.554.554 0 0 1-.04-.11.556.556 0 0 1-.05-.081c-.62-1.24-1.48-1.663-2.722-1.36a.553.553 0 1 1-.261-1.074c1.611-.393 2.9.146 3.755 1.548.543-.514.869-1.254.869-2.056 0-1.012-.52-1.925-1.338-2.41a.553.553 0 0 1-.213-.723 2.87 2.87 0 0 0 .302-1.288c0-1.463-1.076-2.653-2.43-2.756-.287 1.568-1.274 2.52-2.886 2.755a.553.553 0 1 1-.16-1.093c1.266-.185 1.903-.9 2.014-2.281v-.01C16.256 1.196 15.092 0 13.673 0c-1.441 0-2.62 1.232-2.62 2.763v15.474c0 1.531 1.179 2.763 2.62 2.763 1.44 0 2.619-1.232 2.619-2.777a.55.55 0 0 1 .067-.264zm-12.723-.287l.002-.028c.15-1.884 1.17-3.025 2.955-3.286a.553.553 0 1 1 .16 1.094c-1.265.184-1.903.9-2.013 2.28a.55.55 0 0 1-.084.251.55.55 0 0 1 .054.24C4.71 19.767 5.888 21 7.33 21c1.44 0 2.618-1.232 2.618-2.763V2.763C9.947 1.232 8.77 0 7.328 0 5.945 0 4.804 1.136 4.715 2.582c.012.038.02.08.024.122.11 1.381.748 2.096 2.013 2.28a.553.553 0 0 1-.16 1.094C4.98 5.843 3.993 4.89 3.706 3.321 2.34 3.41 1.249 4.606 1.249 6.08c0 .456.105.894.302 1.288a.554.554 0 0 1 .04.11.557.557 0 0 1 .045.073c.62 1.24 1.48 1.663 2.721 1.36a.553.553 0 0 1 .262 1.075c-1.609.391-2.896-.145-3.75-1.54A2.828 2.828 0 0 0 0 10.5c0 1.012.52 1.925 1.338 2.41.25.149.342.464.213.723a2.87 2.87 0 0 0-.302 1.288c0 1.448 1.054 2.628 2.386 2.752z"/>
    </g>
</svg>
