<svg xmlns="http://www.w3.org/2000/svg" width="617" height="397" viewBox="0 0 617 397">
    <defs>
        <linearGradient id="a" x1="100%" x2="0%" y1="34.411%" y2="0%">
            <stop offset="0%" stop-color="#04D0FD"/>
            <stop offset="100%" stop-color="#04D0FD" stop-opacity="0"/>
        </linearGradient>
        <linearGradient id="b" x1="0%" x2="96.556%" y1="63.552%" y2="4.65%">
            <stop offset="0%" stop-color="#04D0FD"/>
            <stop offset="100%" stop-color="#04D0FD" stop-opacity="0"/>
        </linearGradient>
        <radialGradient id="c" cy="0%" r="158.744%" fx="50%" fy="0%" gradientTransform="matrix(0 1 -.43888 0 .5 -.5)">
            <stop offset="0%" stop-color="#E8F0FF"/>
            <stop offset="100%" stop-color="#FFF" stop-opacity="0"/>
        </radialGradient>
        <filter id="d" width="201.1%" height="206.7%" x="-60.1%" y="-37.6%" filterUnits="objectBoundingBox">
            <feOffset dx="-9" dy="14" in="SourceAlpha" result="shadowOffsetOuter1"/>
            <feGaussianBlur in="shadowOffsetOuter1" result="shadowBlurOuter1" stdDeviation="13.5"/>
            <feColorMatrix in="shadowBlurOuter1" result="shadowMatrixOuter1" values="0 0 0 0 0.77254902 0 0 0 0 0.847058824 0 0 0 0 0.988235294 0 0 0 0.500254755 0"/>
            <feMerge>
                <feMergeNode in="shadowMatrixOuter1"/>
                <feMergeNode in="SourceGraphic"/>
            </feMerge>
        </filter>
        <linearGradient id="e" x1="82.544%" x2="-50.437%" y1="50%" y2="50%">
            <stop offset="0%" stop-color="#E6F0FE"/>
            <stop offset="100%" stop-color="#B4CCFB"/>
        </linearGradient>
        <linearGradient id="f" x1="82.544%" x2="3.997%" y1="50%" y2="50%">
            <stop offset="0%" stop-color="#E6F0FE"/>
            <stop offset="100%" stop-color="#B4CCFB"/>
        </linearGradient>
        <linearGradient id="g" x1="143.468%" x2="-15.452%" y1="-85.849%" y2="100%">
            <stop offset="0%" stop-color="#39DAE7"/>
            <stop offset="100%" stop-color="#1174CE"/>
        </linearGradient>
        <linearGradient id="h" x1="55.434%" x2="55.434%" y1="78.875%" y2="-70.554%">
            <stop offset="0%" stop-color="#DBE8FD"/>
            <stop offset="100%" stop-color="#2A69B5"/>
        </linearGradient>
        <linearGradient id="i" x1="50%" x2="50%" y1="-15.198%" y2="219.926%">
            <stop offset="0%" stop-color="#DBE8FD"/>
            <stop offset="100%" stop-color="#B4CCFB"/>
        </linearGradient>
        <linearGradient id="j" x1="50%" x2="50%" y1="0%" y2="100%">
            <stop offset="0%" stop-color="#FFF"/>
            <stop offset="100%" stop-color="#F0F4FF"/>
        </linearGradient>
        <filter id="k" width="203.9%" height="186.9%" x="-62.7%" y="-30.3%" filterUnits="objectBoundingBox">
            <feOffset dx="-11" dy="16" in="SourceAlpha" result="shadowOffsetOuter1"/>
            <feGaussianBlur in="shadowOffsetOuter1" result="shadowBlurOuter1" stdDeviation="15"/>
            <feColorMatrix in="shadowBlurOuter1" result="shadowMatrixOuter1" values="0 0 0 0 0.77254902 0 0 0 0 0.847058824 0 0 0 0 0.988235294 0 0 0 0.500254755 0"/>
            <feMerge>
                <feMergeNode in="shadowMatrixOuter1"/>
                <feMergeNode in="SourceGraphic"/>
            </feMerge>
        </filter>
        <filter id="l" width="206.7%" height="191.3%" x="-63.5%" y="-32.2%" filterUnits="objectBoundingBox">
            <feOffset dx="-9" dy="14" in="SourceAlpha" result="shadowOffsetOuter1"/>
            <feGaussianBlur in="shadowOffsetOuter1" result="shadowBlurOuter1" stdDeviation="13.5"/>
            <feColorMatrix in="shadowBlurOuter1" result="shadowMatrixOuter1" values="0 0 0 0 0.77254902 0 0 0 0 0.847058824 0 0 0 0 0.988235294 0 0 0 0.500254755 0"/>
            <feMerge>
                <feMergeNode in="shadowMatrixOuter1"/>
                <feMergeNode in="SourceGraphic"/>
            </feMerge>
        </filter>
        <linearGradient id="m" x1="50%" x2="50%" y1="0%" y2="100%">
            <stop offset="0%" stop-color="#CAF18E"/>
            <stop offset="100%" stop-color="#9ADF55"/>
        </linearGradient>
        <linearGradient id="n" x1="90.931%" x2="-6.432%" y1="44.465%" y2="54.775%">
            <stop offset="0%" stop-color="#0F6EC8"/>
            <stop offset="100%" stop-color="#439BEB"/>
        </linearGradient>
        <filter id="o" width="177.2%" height="213.1%" x="-45.9%" y="-39.9%" filterUnits="objectBoundingBox">
            <feOffset dx="-9" dy="14" in="SourceAlpha" result="shadowOffsetOuter1"/>
            <feGaussianBlur in="shadowOffsetOuter1" result="shadowBlurOuter1" stdDeviation="13.5"/>
            <feColorMatrix in="shadowBlurOuter1" result="shadowMatrixOuter1" values="0 0 0 0 0.77254902 0 0 0 0 0.847058824 0 0 0 0 0.988235294 0 0 0 0.500254755 0"/>
            <feMerge>
                <feMergeNode in="shadowMatrixOuter1"/>
                <feMergeNode in="SourceGraphic"/>
            </feMerge>
        </filter>
        <linearGradient id="p" x1="50%" x2="50%" y1="21.331%" y2="112.55%">
            <stop offset="0%" stop-color="#DBE8FD"/>
            <stop offset="100%" stop-color="#B4CCFB"/>
        </linearGradient>
        <filter id="q" width="217.3%" height="184.1%" x="-69.8%" y="-29.6%" filterUnits="objectBoundingBox">
            <feOffset dx="-9" dy="14" in="SourceAlpha" result="shadowOffsetOuter1"/>
            <feGaussianBlur in="shadowOffsetOuter1" result="shadowBlurOuter1" stdDeviation="13.5"/>
            <feColorMatrix in="shadowBlurOuter1" result="shadowMatrixOuter1" values="0 0 0 0 0.77254902 0 0 0 0 0.847058824 0 0 0 0 0.988235294 0 0 0 0.500254755 0"/>
            <feMerge>
                <feMergeNode in="shadowMatrixOuter1"/>
                <feMergeNode in="SourceGraphic"/>
            </feMerge>
        </filter>
        <linearGradient id="r" x1="95.627%" x2="95.627%" y1="-3.856%" y2="76.717%">
            <stop offset="0%" stop-color="#04D0FD"/>
            <stop offset="100%" stop-color="#04D0FD" stop-opacity="0"/>
        </linearGradient>
    </defs>
    <g fill="none" fill-rule="evenodd">
        <path d="M56-13h555v410H56z"/>
        <g stroke-linejoin="round" stroke-width="4">
            <path stroke="url(#a)" d="M396 0h71.814C473.439 0 478 4.861 478 10.858V58" transform="translate(95 145)"/>
            <path stroke="url(#b)" d="M0 58V10C0 4.477 4.477 0 10 0h72" transform="translate(95 145)"/>
        </g>
        <path fill="url(#c)" fill-rule="nonzero" d="M21 352h555v58H21z" transform="translate(35 -13)"/>
        <g filter="url(#d)" transform="translate(505 13)">
            <rect width="94" height="27.672" fill="url(#e)" rx="1.5"/>
            <rect width="94" height="27.672" y="30.664" fill="url(#e)" rx="1.5"/>
            <path fill="#06CFFD" d="M10.152 47.118A2.625 2.625 0 0 1 7.52 44.5a2.625 2.625 0 0 1 2.632-2.618 2.625 2.625 0 0 1 2.632 2.618 2.625 2.625 0 0 1-2.632 2.618zm9.024 0a2.625 2.625 0 0 1-2.632-2.618 2.625 2.625 0 0 1 2.632-2.618 2.625 2.625 0 0 1 2.632 2.618 2.625 2.625 0 0 1-2.632 2.618z"/>
            <rect width="94" height="27.672" y="61.328" fill="url(#e)" rx="1.5"/>
            <path fill="url(#f)" d="M82.72 0h9.78A1.5 1.5 0 0 1 94 1.5v24.672a1.5 1.5 0 0 1-1.5 1.5h-9.78V0zM82.72 30.664h9.78a1.5 1.5 0 0 1 1.5 1.5v24.672a1.5 1.5 0 0 1-1.5 1.5h-9.78V30.664zM82.72 61.328h9.78a1.5 1.5 0 0 1 1.5 1.5V87.5a1.5 1.5 0 0 1-1.5 1.5h-9.78V61.328z" opacity=".1"/>
            <path fill="#04D0FD" d="M10.152 77.782a2.625 2.625 0 0 1-2.632-2.618 2.625 2.625 0 0 1 2.632-2.618 2.625 2.625 0 0 1 2.632 2.618 2.625 2.625 0 0 1-2.632 2.618zm9.024 0a2.625 2.625 0 0 1-2.632-2.618 2.625 2.625 0 0 1 2.632-2.618 2.625 2.625 0 0 1 2.632 2.618 2.625 2.625 0 0 1-2.632 2.618z"/>
            <path fill="#06CFFD" d="M10.152 16.454a2.625 2.625 0 0 1-2.632-2.618 2.625 2.625 0 0 1 2.632-2.618 2.625 2.625 0 0 1 2.632 2.618 2.625 2.625 0 0 1-2.632 2.618zm9.024 0a2.625 2.625 0 0 1-2.632-2.618 2.625 2.625 0 0 1 2.632-2.618 2.625 2.625 0 0 1 2.632 2.618 2.625 2.625 0 0 1-2.632 2.618z"/>
            <path fill="url(#g)" fill-rule="nonzero" d="M2.256 27.672h90.24v2.992H2.256zM2.256 58.336h90.24v2.992H2.256z"/>
        </g>
        <g transform="translate(188 105)">
            <path fill="url(#g)" fill-rule="nonzero" d="M12 0h248c6.627 0 12 5.373 12 12v155H0V12C0 5.373 5.373 0 12 0z"/>
            <path fill="url(#h)" d="M104 198h65v19.5c0 6.351 5.149 11.5 11.5 11.5h7c.698 0 1.73.959 3.095 2.877A1.344 1.344 0 0 1 189.5 234h-106a1.344 1.344 0 0 1-1.095-2.123C83.77 229.959 84.802 229 85.5 229h7c6.351 0 11.5-5.149 11.5-11.5V198z"/>
            <path fill="url(#i)" d="M0 167h272v19c0 6.627-5.373 12-12 12H12c-6.627 0-12-5.373-12-12v-19z"/>
            <path fill="url(#j)" d="M10 10h252a2 2 0 0 1 2 2v143a2 2 0 0 1-2 2H10a2 2 0 0 1-2-2V12a2 2 0 0 1 2-2z"/>
            <g transform="translate(25 2)">
                <rect width="102" height="122" y="21" fill="#EBF1FD" rx="5"/>
                <rect width="102" height="122" x="120" y="21" fill="#EBF1FD" rx="5" style="mix-blend-mode:multiply"/>
                <path fill="#CFE0FD" d="M8.5 121h19a1.5 1.5 0 0 1 0 3h-19a1.5 1.5 0 0 1 0-3zm0 6h29a1.5 1.5 0 0 1 0 3h-29a1.5 1.5 0 0 1 0-3zm0 6h39a1.5 1.5 0 0 1 0 3h-39a1.5 1.5 0 0 1 0-3zm25-12h19a1.5 1.5 0 0 1 0 3h-19a1.5 1.5 0 0 1 0-3zm25 0h19a1.5 1.5 0 0 1 0 3h-19a1.5 1.5 0 0 1 0-3z"/>
                <path fill="#9FEDFF" d="M34.57 41.252c3.735-1.755 6.406-2.455 8.011-2.1 2.408.534 5.034 11.168 4.981 24.424-.035 8.838-.365 19.841-.991 33.01-.186 3.427-2.949 5.66-8.289 6.699-8.01 1.558-24.287 4.585-24.25-4.974.038-9.56-.701-18.395 3.228-32.566 2.619-9.447 8.389-17.611 17.31-24.493zm34.248-.107c8.866 6.826 14.571 14.954 17.116 24.385 3.817 14.146 3.007 22.986 2.97 32.546-.039 9.559-16.293 6.634-24.29 5.126-5.333-1.005-8.078-3.221-8.236-6.647-.522-13.165-.765-24.166-.73-33.004.052-13.257 2.762-23.907 5.174-24.455 1.608-.366 4.273.317 7.996 2.049z"/>
                <path fill="#05D0FD" d="M51.113 59.143c-.244.483-.61.899-1.072 1.194-6.037 3.857-9.882 8.06-11.534 12.607-1.776 4.891-.618 8.144 3.475 9.76-1.936.006-3.42-.85-4.448-2.568a.903.903 0 0 0-.714-.443c-.505-.034-.943.366-.979.893-.412 5.497 1.72 9.358 6.396 11.582-3.706-.802-5.893-3.035-6.562-6.696 1.052 5.492 1.183 9.36.393 11.601l-.423-3.968c-.495 1.63-1.526 3.262-3.094 4.895 1.769-3.059 2.463-5.707 2.081-7.945-.381-2.238-.76-5.087-1.137-8.546 0 0-2.055 1.228-5.873 3.988-2.545 1.84-4.604 4.085-6.176 6.736.594-2.037 2.36-4.485 5.3-7.344-3.316-.6-5.565.323-6.746 2.769.824-2.715 2.86-3.952 6.11-3.71a5.735 5.735 0 0 0 4.196-1.416c.679-.591 1.198-1.08 1.557-1.469 1.257-1.358 2.32-3.573 3.19-6.645a.637.637 0 0 0 .022-.222.588.588 0 0 0-.63-.555c-2.043.185-4.009.37-5.9.556-2.148.21-3.52 1.639-4.116 4.287.017-4.275 1.486-5.5 7.343-5.519 5.857-.018 8.221-5.522 9.405-8.579.789-2.038-2.138-2.436-8.78-1.193-.688 1.099-1.668 2.018-2.94 2.757-1.272.739-2.934 1.355-4.985 1.847 2.345-.618 4.205-1.947 5.58-3.986-3.319-.194-5.658-1.102-7.018-2.727 3.897 1.82 7.703 2.012 11.418.575-1.46-.911-.867-2.745-.858-5.188.007-1.628-.574-2.848-1.742-3.658 1.95.604 2.92 2.332 2.908 5.181-.012 2.85.863 3.865 2.623 3.046-2.126-5.286-.645-9.565 4.444-12.838-6.759 5.847-3.576 15.583 1.119 13.126 1.311-.687 2.4-1.408 3.266-2.164 1.467-1.281 2.319-3.17 2.327-5.158l.067-16.99 5.19-.016-.068 16.99c-.007 1.988.83 3.871 2.286 5.143.86.75 1.943 1.465 3.25 2.144 4.675 2.428 7.935-7.329 1.223-13.134 5.063 3.242 6.51 7.512 4.341 12.81 1.754.81 2.637-.21 2.648-3.06.011-2.85.994-4.584 2.95-5.2-1.176.817-1.766 2.04-1.773 3.669-.01 2.443.57 4.273-.899 5.193 3.704 1.414 7.512 1.198 11.423-.646-1.373 1.633-3.719 2.556-7.039 2.77 1.359 2.031 3.208 3.349 5.548 3.952-2.047-.48-3.704-1.085-4.97-1.816-1.267-.732-2.24-1.645-2.918-2.74-6.633-1.2-9.563-.784-8.79 1.25 1.16 3.05 3.48 8.538 9.337 8.52 5.857-.019 7.316 1.198 7.299 5.473-.575-2.645-1.936-4.065-4.083-4.262-1.889-.173-3.854-.346-5.894-.52a.599.599 0 0 0-.635.56c-.006.075 0 .15.02.222.846 3.066 1.891 5.275 3.138 6.626.355.385.87.872 1.545 1.459a5.666 5.666 0 0 0 4.184 1.39c3.252-.262 5.279.961 6.081 3.671-1.162-2.439-3.403-3.348-6.724-2.727 2.917 2.84 4.664 5.278 5.242 7.312-1.552-2.642-3.593-4.874-6.123-6.698-3.796-2.736-5.841-3.951-5.841-3.951-.404 3.461-.806 6.312-1.206 8.553-.399 2.24.274 4.884 2.019 7.932-1.556-1.624-2.574-3.249-3.056-4.876l-.455 3.971c-.772-2.237-.61-6.105.486-11.604-.698 3.666-2.903 5.912-6.616 6.738 4.694-2.254 6.857-6.128 6.489-11.623-.032-.527-.467-.924-.972-.887a.92.92 0 0 0-.717.448c-1.043 1.724-2.533 2.59-4.47 2.595 4.107-1.64 5.291-4.901 3.554-9.781-1.616-4.538-5.427-8.716-11.434-12.536a2.974 2.974 0 0 1-1.063-1.187z"/>
                <g filter="url(#k)" transform="translate(120)">
                    <rect width="102" height="122" fill="#F3F8FF" rx="5"/>
                    <path fill="#9ADF55" d="M56.923 55.281v-6.158h7.623V41.5h6.158v7.623h7.623v6.158h-7.623v7.623h-6.158V55.28h-7.623zm-8.869 3.035l4.4 1.47A6.548 6.548 0 0 1 56.925 66v2.234c0 1.513-1.125 2.79-2.505 2.955C49.602 72.396 44.782 73 39.962 73c-4.821 0-9.641-.604-14.34-1.789A2.998 2.998 0 0 1 23 68.234V66c0-2.82 1.8-5.322 4.468-6.214l4.4-1.47a4.548 4.548 0 0 0 3.088-3.919l-1.22-1.223a5 5 0 0 1-.947-1.324l-1.432-2.908a3.046 3.046 0 0 1-2.382-2.977l.005-1.945a3.04 3.04 0 0 1 2.035-2.862V38c0-3.866 3.127-7 6.984-7h3.925c3.857 0 6.984 3.134 6.984 7v3.158a3.04 3.04 0 0 1 2.035 2.862l.006 1.942c0 1.46-1.02 2.68-2.383 2.98l-1.432 2.908a5 5 0 0 1-.946 1.324l-1.22 1.223a4.548 4.548 0 0 0 3.086 3.92z"/>
                    <path fill="#8DB0DE" d="M5 0h92a5 5 0 0 1 5 5v9H0V5a5 5 0 0 1 5-5z"/>
                    <path fill="#CFE0FD" d="M10 91h71v8H10zM10 103h42v8H10z"/>
                </g>
            </g>
            <circle cx="136.5" cy="182.5" r="5.5" fill="#84AADA"/>
        </g>
        <g filter="url(#l)" transform="translate(508 208)">
            <rect width="89" height="104" fill="#F3F8FF" rx="4.219"/>
            <path fill="#56DEFD" d="M13.5 19h9a1.5 1.5 0 0 1 0 3h-9a1.5 1.5 0 0 1 0-3zm0 6h19a1.5 1.5 0 0 1 0 3h-19a1.5 1.5 0 0 1 0-3z"/>
            <path fill="url(#m)" d="M12 47.072h10.56v42.203H12V47.072zm18.102 15.073H40.66v27.13h-10.56v-27.13zm18.101 15.072h10.56v12.058h-10.56V77.217zM66.305 32h10.56v57.275h-10.56V32z"/>
            <path fill="url(#n)" d="M12.068 46.725h10.56v3.014h-10.56v-3.014zm18.101 15.072h10.56v3.015h-10.56v-3.015zM48.271 76.87h10.56v3.014H48.27V76.87zm18.102-45.218h10.56v3.015h-10.56v-3.015z" opacity=".4" style="mix-blend-mode:multiply"/>
            <path fill="url(#g)" fill-rule="nonzero" d="M4.219 0H84.78A4.219 4.219 0 0 1 89 4.219v7.715H0V4.22A4.219 4.219 0 0 1 4.219 0z"/>
        </g>
        <g filter="url(#o)" transform="translate(35 13)">
            <path fill="url(#p)" d="M18.847 78C8.438 78 0 69.566 0 59.161c0-8.867 6.128-16.303 14.382-18.307a20.554 20.554 0 0 1-.495-4.498c0-11.317 9.178-20.492 20.5-20.492a20.41 20.41 0 0 1 11.522 3.541C50.523 8.025 61.687 0 74.726 0c17.165 0 31.08 13.91 31.08 31.068 0 3.223-.49 6.332-1.402 9.256C114.697 40.458 123 48.84 123 59.16 123 69.565 114.562 78 104.153 78H18.847z"/>
            <path fill="url(#g)" fill-rule="nonzero" d="M46.76 84c-6.687 0-12.108-5.317-12.108-11.876 0-5.59 3.938-10.278 9.24-11.541a12.724 12.724 0 0 1-.318-2.836c0-7.134 5.897-12.918 13.171-12.918 2.745 0 5.294.824 7.403 2.233 2.965-7.174 10.137-12.234 18.514-12.234 11.029 0 19.97 8.77 19.97 19.586 0 2.032-.316 3.992-.902 5.835 6.613.084 11.948 5.369 11.948 11.875 0 6.559-5.421 11.876-12.109 11.876H46.761z"/>
        </g>
        <g filter="url(#q)" transform="translate(56 208)">
            <rect width="81" height="102.453" y="10.547" fill="#A2BEF2" rx="3.75"/>
            <rect width="79.5" height="100.947" y="10.547" fill="url(#p)" rx="3.75"/>
            <rect width="64.847" height="90.4" x="8" y="16" fill="#F3F8FF" rx="3.75"/>
            <path stroke="#0BD1FE" stroke-linecap="round" stroke-linejoin="round" stroke-width="2" d="M14 48.354h16.227l3.091-4.708 1.288 5.732L38.727 33l3.349 26 2.576-7.37 3.863-.819 1.803-6.551 4.121 4.094H65"/>
            <path fill="#99B8E2" d="M18.38 70.06h14.24a1.13 1.13 0 1 1 0 2.26H18.38a1.13 1.13 0 1 1 0-2.26zm0 4.52h21.74a1.13 1.13 0 1 1 0 2.26H18.38a1.13 1.13 0 1 1 0-2.26zm0 4.52h29.24a1.13 1.13 0 1 1 0 2.26H18.38a1.13 1.13 0 1 1 0-2.26zm18.75-9.04h6.74a1.13 1.13 0 1 1 0 2.26h-6.74a1.13 1.13 0 1 1 0-2.26zm11.25 0h6.74a1.13 1.13 0 1 1 0 2.26h-6.74a1.13 1.13 0 1 1 0-2.26zM18.38 86.633h14.24a1.13 1.13 0 0 1 0 2.26H18.38a1.13 1.13 0 1 1 0-2.26zm0 4.52h21.74a1.13 1.13 0 0 1 0 2.26H18.38a1.13 1.13 0 1 1 0-2.26zm0 4.52h29.24a1.13 1.13 0 0 1 0 2.26H18.38a1.13 1.13 0 1 1 0-2.26zm18.75-9.04h6.74a1.13 1.13 0 0 1 0 2.26h-6.74a1.13 1.13 0 1 1 0-2.26zm11.25 0h6.74a1.13 1.13 0 0 1 0 2.26h-6.74a1.13 1.13 0 1 1 0-2.26z"/>
            <path fill="url(#i)" d="M20.25 14.313h37.5v3.78a3 3 0 0 1-3 3h-31.5a3 3 0 0 1-3-3v-3.78z"/>
            <path fill="url(#g)" fill-rule="nonzero" d="M39 0c4.556 0 8.25 3.71 8.25 8.287H54c4.142 0 7.5 3.372 7.5 7.533 0 1.04-.843 1.883-1.883 1.883H18.383A1.883 1.883 0 0 1 16.5 15.82c0-4.16 3.358-7.533 7.5-7.533h6.75C30.75 3.71 34.444 0 39 0zm0 9.04a2.255 2.255 0 0 0 2.25-2.26A2.255 2.255 0 0 0 39 4.52a2.255 2.255 0 0 0-2.25 2.26A2.255 2.255 0 0 0 39 9.04z"/>
        </g>
        <g stroke="url(#r)" stroke-linejoin="round" stroke-width="4" transform="translate(168 49)">
            <path d="M0 0h98c5.523 0 10 4.477 10 10v40M320 0h-98c-5.523 0-10 4.477-10 10v40"/>
        </g>
    </g>
</svg>
