<svg xmlns="http://www.w3.org/2000/svg" xmlns:xlink="http://www.w3.org/1999/xlink" width="834" height="702" viewBox="0 0 834 702">
    <defs>
        <linearGradient id="a" x1="-4.872%" x2="135.715%" y1="36.435%" y2="36.435%">
            <stop offset="0%" stop-color="#FAFCFF"/>
            <stop offset="100%" stop-color="#D3E6FF"/>
        </linearGradient>
        <linearGradient id="b" x1="11.863%" x2="120.849%" y1="60.049%" y2="41.579%">
            <stop offset="0%" stop-color="#15B6F3"/>
            <stop offset="100%" stop-color="#1566D1"/>
        </linearGradient>
        <linearGradient id="c" x1="100%" x2="0%" y1="32.17%" y2="69.41%">
            <stop offset="0%" stop-color="#1679D2"/>
            <stop offset="100%" stop-color="#1D55B7"/>
        </linearGradient>
        <linearGradient id="d" x1="-136.914%" x2="111.45%" y1="-21.173%" y2="78.631%">
            <stop offset="0%" stop-color="#39DAE7"/>
            <stop offset="100%" stop-color="#1174CE"/>
        </linearGradient>
        <linearGradient id="e" x1="402.453%" x2="-24.833%" y1="-12.735%" y2="70.705%">
            <stop offset="0%" stop-color="#14F6F6"/>
            <stop offset="100%" stop-color="#00E5A2"/>
        </linearGradient>
        <linearGradient id="f" x1="323.683%" x2="-24.833%" y1="-7.011%" y2="70.705%">
            <stop offset="0%" stop-color="#82FFFF"/>
            <stop offset="100%" stop-color="#5BFFCF"/>
        </linearGradient>
        <linearGradient id="g" x1="201.503%" x2="0%" y1="15.468%" y2="92.058%">
            <stop offset="0%" stop-color="#15B6F3"/>
            <stop offset="100%" stop-color="#1566D1"/>
        </linearGradient>
        <linearGradient id="h" x1="-4.872%" x2="135.715%" y1="36.435%" y2="36.435%">
            <stop offset="0%" stop-color="#FAFCFF"/>
            <stop offset="100%" stop-color="#C1DCFF"/>
        </linearGradient>
        <linearGradient id="i" x1="50%" x2="18.687%" y1="-15.198%" y2="156.733%">
            <stop offset="0%" stop-color="#FFF" stop-opacity="0"/>
            <stop offset="100%" stop-color="#2CB4E6"/>
        </linearGradient>
        <linearGradient id="j" x1="100%" x2="4.403%" y1="100%" y2="9.165%">
            <stop offset="0%" stop-color="#5BFFCF"/>
            <stop offset="100%" stop-color="#FFF" stop-opacity="0"/>
        </linearGradient>
        <linearGradient id="k" x1="73.237%" x2="63.732%" y1="-6.795%" y2="64.954%">
            <stop offset="0%" stop-color="#5DFFD1"/>
            <stop offset="100%" stop-color="#FFF" stop-opacity="0"/>
        </linearGradient>
        <linearGradient id="l" x1="93.317%" x2="28.009%" y1="27.379%" y2="100%">
            <stop offset="0%" stop-color="#1679D2"/>
            <stop offset="100%" stop-color="#1049AD"/>
        </linearGradient>
        <linearGradient id="m" x1="117.504%" x2="79.695%" y1="-42.958%" y2="35.752%">
            <stop offset="0%" stop-color="#1679D2"/>
            <stop offset="100%" stop-color="#1049AD"/>
        </linearGradient>
        <path id="n" d="M65.004.68l148.074 85.157-61.607 78.06C52.285 107.37 2.267 78.371 1.415 76.904a4.59 4.59 0 0 1 .534-5.346L65.004.68z"/>
        <linearGradient id="p" x1="59.463%" x2="11.455%" y1="41.608%" y2="126.672%">
            <stop offset="0%" stop-color="#38D7E6"/>
            <stop offset="100%" stop-color="#1D55B7"/>
        </linearGradient>
        <linearGradient id="q" x1="50%" x2="50%" y1="9.256%" y2="104.001%">
            <stop offset="0%" stop-color="#17D3FD" stop-opacity="0"/>
            <stop offset="100%" stop-color="#00FFB5"/>
        </linearGradient>
        <linearGradient id="r" x1="50%" x2="50%" y1="13.966%" y2="100%">
            <stop offset="0%" stop-color="#5BFFCF" stop-opacity="0"/>
            <stop offset="100%" stop-color="#BEFFEC"/>
        </linearGradient>
        <linearGradient id="s" x1="50%" x2="124.496%" y1="25.37%" y2="194.748%">
            <stop offset="0%" stop-color="#EBF3FF"/>
            <stop offset="100%" stop-color="#B4CCFB"/>
        </linearGradient>
        <linearGradient id="t" x1="108.904%" x2="-159.75%" y1="29.752%" y2="146.068%">
            <stop offset="0%" stop-color="#14F6F6"/>
            <stop offset="100%" stop-color="#00E5A2"/>
        </linearGradient>
        <linearGradient id="u" x1="118.504%" x2="7.035%" y1="6.094%" y2="83.706%">
            <stop offset="0%" stop-color="#15B6F3"/>
            <stop offset="100%" stop-color="#1566D1"/>
        </linearGradient>
        <linearGradient id="v" x1="143.468%" x2="-15.452%" y1="-85.849%" y2="100%">
            <stop offset="0%" stop-color="#39DAE7"/>
            <stop offset="100%" stop-color="#1174CE"/>
        </linearGradient>
        <linearGradient id="w" x1="84.619%" x2="84.619%" y1="85.429%" y2="-68.103%">
            <stop offset="0%" stop-color="#5BFFCF" stop-opacity="0"/>
            <stop offset="100%" stop-color="#5BFFCF"/>
        </linearGradient>
        <linearGradient id="x" x1="84.619%" x2="84.619%" y1="85.429%" y2="-132.366%">
            <stop offset="0%" stop-color="#5BFFCF" stop-opacity="0"/>
            <stop offset="100%" stop-color="#4EECD7"/>
            <stop offset="100%" stop-color="#5BFFCF"/>
        </linearGradient>
        <linearGradient id="y" x1="-407.777%" x2="71.625%" y1="-276.084%" y2="78.056%">
            <stop offset="0%" stop-color="#39DAE7"/>
            <stop offset="100%" stop-color="#1174CE"/>
        </linearGradient>
        <linearGradient id="z" x1="-243.64%" x2="106.445%" y1="-469.449%" y2="116.172%">
            <stop offset="0%" stop-color="#39DAE7"/>
            <stop offset="100%" stop-color="#2B91EE"/>
        </linearGradient>
        <linearGradient id="A" x1="0%" x2="105.039%" y1="28.321%" y2="100%">
            <stop offset="0%" stop-color="#FAFCFF"/>
            <stop offset="100%" stop-color="#D3E6FF"/>
        </linearGradient>
        <linearGradient id="B" x1="54.245%" x2="48.349%" y1="93.478%" y2="46.817%">
            <stop offset="0%" stop-color="#F4F7FD"/>
            <stop offset="100%" stop-color="#FFF"/>
        </linearGradient>
        <linearGradient id="C" x1="-177.458%" x2="86.059%" y1="-82.892%" y2="86.097%">
            <stop offset="0%" stop-color="#14F6F6"/>
            <stop offset="100%" stop-color="#00D496"/>
        </linearGradient>
        <linearGradient id="D" x1="61.272%" x2="48.349%" y1="92.49%" y2="46.817%">
            <stop offset="0%" stop-color="#F4F7FD"/>
            <stop offset="100%" stop-color="#FFF"/>
        </linearGradient>
        <path id="E" d="M7.322 17.747c9.763 5.527 25.593 5.527 35.356 0 4.94-2.797 7.38-6.473 7.32-10.138-.038-2.386-.038-4.91 0-7.573H0C.021 2.726.021 5.27 0 7.67c-.031 3.645 2.41 7.296 7.322 10.078z"/>
        <linearGradient id="F" x1="-26.206%" x2="138.976%" y1="21.186%" y2="86.162%">
            <stop offset="0%" stop-color="#E5ECFA"/>
            <stop offset="100%" stop-color="#ABCAF1"/>
        </linearGradient>
        <linearGradient id="H" x1="-11.466%" x2="86.097%" y1="-50.369%" y2="84.347%">
            <stop offset="0%" stop-color="#FAFCFF"/>
            <stop offset="100%" stop-color="#B6D2FA"/>
        </linearGradient>
        <linearGradient id="I" x1="115.047%" x2="-139.26%" y1="73.344%" y2="-20.928%">
            <stop offset="0%" stop-color="#EBF3FF"/>
            <stop offset="100%" stop-color="#B4CCFB"/>
        </linearGradient>
        <linearGradient id="J" x1="6.434%" x2="86.666%" y1="-20.198%" y2="109.124%">
            <stop offset="0%" stop-color="#FAB643"/>
            <stop offset="55.969%" stop-color="#F48222"/>
            <stop offset="100%" stop-color="#F16322"/>
        </linearGradient>
    </defs>
    <g fill="none" fill-rule="evenodd">
        <path fill="#CCD8F1" d="M147.763 128.667l112.284 64.873a1.8 1.8 0 0 1 0 3.115l-112.284 64.873a5.389 5.389 0 0 1-5.392 0L30.087 196.655a1.8 1.8 0 0 1 0-3.115l112.284-64.873a5.389 5.389 0 0 1 5.392 0z" opacity=".55" style="mix-blend-mode:multiply"/>
        <path fill="#1047A7" d="M147.96 83.67l121.49 65.164c-.002 3.648-.002 5.694 0 6.137a1.923 1.923 0 0 1-.965 1.677L147.96 226.282a5.784 5.784 0 0 1-5.788 0L21.65 156.648a1.93 1.93 0 0 1-.965-1.659c-.002-.221-.002-2.273 0-6.155l121.49-65.164a5.784 5.784 0 0 1 5.787 0z"/>
        <path fill="url(#a)" d="M127.96 70.95l120.525 69.634a1.931 1.931 0 0 1 0 3.344L127.96 213.56a5.784 5.784 0 0 1-5.788 0L1.65 143.928a1.931 1.931 0 0 1 0-3.344L122.173 70.95a5.784 5.784 0 0 1 5.788 0z" transform="translate(20 6.82)"/>
        <path fill="#1047A7" d="M70.675 148.193l67.837 39.236a12.529 12.529 0 0 0 12.548 0l67.837-39.17a4.19 4.19 0 0 0 2.092-3.628v-2.822c-.97-.293-1.668-.562-2.092-.807l-67.837-39.236a12.529 12.529 0 0 0-12.548 0l-67.837 39.169c-.47.272-1.168.533-2.092.784.004 1.424.004 2.36 0 2.81a4.187 4.187 0 0 0 2.092 3.664z"/>
        <path fill="url(#b)" d="M150.385 48.362L82.548 87.598a12.529 12.529 0 0 1-12.548 0L2.163 48.428a4.194 4.194 0 0 1 0-7.257L70 1.935a12.529 12.529 0 0 1 12.548 0l67.837 39.17a4.194 4.194 0 0 1 0 7.257z" transform="matrix(-1 0 0 1 221.06 97.316)"/>
        <path fill="#1047A7" d="M144.214 127.144c9.683-9.21 16.257-18.873 19.723-28.992 5.198-15.178 2.476-32.97-19.723-31.174l9.824-11.354c17.024 3.644 27.501 10.838 31.432 21.582 3.93 10.744-6.547 32.566-31.432 65.466l-9.824-15.528z"/>
        <path fill="url(#c)" fill-rule="nonzero" d="M29.426 126.519c14.308-16.936 21.462-33.03 21.462-48.283 0-22.88-21.502-22.222-30.967-17.535V40.745c20.645-4.216 35.365 1.796 44.16 18.036 13.194 24.36-9.28 73.07-29.772 82.354l-4.152-9.937-.731-4.68z" transform="translate(126.167 6.943)"/>
        <path fill="url(#d)" fill-rule="nonzero" d="M7.838 100.867c5.638 3.324 14.78 3.324 20.418 0 2.853-1.681 4.262-3.892 4.228-6.096-.023-1.434-.023-23.397 0-65.886H3.609c.013 42.506.013 64.48 0 65.922-.018 2.192 1.392 4.388 4.229 6.06z" transform="translate(126.167 6.943)"/>
        <path fill="url(#e)" d="M5.286 23.332c7.048 4.062 18.474 4.062 25.522 0 3.566-2.056 5.328-4.757 5.285-7.451a185.18 185.18 0 0 1 0-5.565H0c.015 1.976.015 3.846 0 5.61-.023 2.678 1.74 5.362 5.286 7.406z" transform="translate(126.167 73.086)"/>
        <path fill="#C0FFF4" d="M131.453 90.843c7.048 4.062 18.475 4.062 25.522 0 7.048-4.062 7.048-10.648 0-14.71-7.047-4.062-18.474-4.062-25.522 0-7.047 4.062-7.047 10.648 0 14.71z"/>
        <path fill="url(#f)" d="M5.286 16.772c7.048 3.836 18.474 3.836 25.522 0 7.048-3.837 7.048-10.058 0-13.894C23.76-.96 12.334-.96 5.286 2.878c-7.048 3.836-7.048 10.057 0 13.894z" transform="translate(126.167 73.086)"/>
        <g>
            <path fill="url(#g)" d="M4.229 80.423c5.638 3.323 14.78 3.323 20.417 0 2.853-1.682 4.263-3.892 4.228-6.096-.022-1.435-.022-23.397 0-65.887H0c.012 42.506.012 64.48 0 65.923-.018 2.192 1.391 4.387 4.229 6.06z" transform="translate(129.777 6.943)"/>
            <path fill="#C0FFF4" d="M134.005 21.47c5.639 3.324 14.78 3.324 20.418 0 5.638-3.323 5.638-8.711 0-12.035-5.638-3.323-14.78-3.323-20.418 0-5.638 3.324-5.638 8.712 0 12.036z"/>
        </g>
        <g>
            <path fill="#1047A7" d="M122.946 155.762c11.746 6.647 30.79 6.647 42.537 0 5.943-3.363 8.88-7.784 8.808-12.192-.046-2.87-.046-5.905 0-9.106h-60.155c.026 3.234.026 6.293 0 9.178-.038 4.384 2.899 8.775 8.81 12.12z"/>
            <path fill="url(#a)" d="M8.81 29.056c11.746 6.648 30.79 6.648 42.537 0 11.746-6.647 11.746-17.424 0-24.07-11.747-6.648-30.791-6.648-42.537 0-11.747 6.646-11.747 17.423 0 24.07z" transform="translate(114.136 117.583)"/>
            <path fill="url(#h)" d="M17.952 24.632c7.936 4.49 20.804 4.49 28.74 0 7.936-4.491 7.936-11.773 0-16.264-7.936-4.49-20.804-4.49-28.74 0-7.936 4.491-7.936 11.773 0 16.264z" transform="translate(114.136 117.583)"/>
        </g>
        <g transform="translate(-43 57.82)">
            <path d="M384.906 77.274l374.21 215.506a4.261 4.261 0 0 1 0 7.39l-374.21 215.506a8.574 8.574 0 0 1-8.555 0L2.14 300.17a4.261 4.261 0 0 1 0-7.39L376.35 77.274a8.574 8.574 0 0 1 8.556 0z"/>
            <path fill="url(#i)" d="M313 346.55h67l298-177-219-70.5z" opacity=".55" style="mix-blend-mode:multiply" transform="translate(0 76.13)"/>
            <path stroke="#0B9DC7" stroke-linecap="round" stroke-width="2.5" d="M529.777 298.788l87.018 50.093a4.987 4.987 0 0 0 4.975 0l179.198-103.157"/>
            <path stroke="url(#j)" stroke-linecap="round" stroke-width="4.5" d="M578.775 220.808l38.02-21.886a4.987 4.987 0 0 1 4.975 0l130.206 74.492" opacity=".5" transform="matrix(1 0 0 -1 0 547.803)"/>
            <g stroke-linecap="round">
                <path stroke="#04E9B6" stroke-width=".75" d="M159.888 391.576L377.46 266.329a4.987 4.987 0 0 1 4.974 0l217.572 125.247"/>
                <path stroke="#04E9B6" stroke-width=".75" d="M689.658 255.275L472.181 380.799a4.973 4.973 0 0 1-4.972 0L249.73 255.275a2.485 2.485 0 0 1 0-4.305l217.478-125.524"/>
                <path stroke="#50F1D4" stroke-width=".75" d="M266.991 125.77l87.823 50.664m-151.626 170.73L43.152 254.84" opacity=".394"/>
                <path stroke="#0B9DC7" stroke-width="2.5" d="M286.456 522.885l151.422-86.527a4 4 0 0 0 0-6.946l-112.922-64.527"/>
                <path stroke="url(#k)" stroke-width="4.5" d="M243.304 398.115l151.422-86.527a4 4 0 0 0 0-6.946l-47.384-27.077" opacity=".5" transform="translate(43.152 124.77)"/>
            </g>
            <path fill="url(#l)" fill-rule="nonzero" d="M395.845 160.118l56.368 7.029c.615.076 1.158.35 1.573.75.16.154 48.807 28.285 145.938 84.393a1.056 1.056 0 0 1-.033 1.848c-27.338 14.523-47.696 20.228-61.075 17.114-13.651-3.177-61.242-25.087-142.771-65.728v-45.406z"/>
            <path fill="url(#l)" fill-rule="nonzero" d="M345.509 374.082L223.809 304v-45.067l171.806-53.87 148.59 40.5v-.287l54.63 6.726a3.375 3.375 0 0 1 1.263 6.28l-55.892 31.937v.412L372.4 389.568l-.467-.269-56.781 32.768a4.604 4.604 0 0 1-6.286-1.68 4.592 4.592 0 0 1 .53-5.337l36.113-40.968z"/>
            <path fill="#1048AD" d="M404.07 359.251l-15.328 12.182-3.156-1.708v-17.63l18.483-10.625 2.824 1.577z"/>
            <path fill="url(#f)" d="M21.307 1.834V19.44L3.157 29.963V12.25l18.15-10.674z" transform="translate(385.586 341.47)"/>
            <path fill="#1048AD" d="M429.322 345.058l-15.327 12.182-3.156-1.708v-17.63l18.483-10.625 2.824 1.577z"/>
            <path fill="url(#f)" d="M21.307 1.834V19.44L3.157 29.963V12.25l18.15-10.674z" transform="translate(410.839 327.277)"/>
            <path fill="url(#l)" fill-rule="nonzero" d="M395.67 160.118l148.536 85.568-172.036 98.15-148.36-84.742z"/>
            <path fill="url(#m)" fill-rule="nonzero" d="M540.317 247.905l-131.67 75.12L330.5 296l146-65.5 63.817 17.405z" opacity=".5"/>
            <g transform="translate(159.092 257.999)">
                <mask id="o" fill="#fff">
                    <use xlink:href="#n"/>
                </mask>
                <use fill="url(#l)" fill-rule="nonzero" xlink:href="#n"/>
                <g fill="#4E9BDC" mask="url(#o)">
                    <path d="M242.029 112.772l-.418.733L18.882-13.379l.418-.733 222.729 126.884zm-6.364 8.46l-.417.732L12.518-4.92l.418-.733 222.73 126.884zm-6.363 8.458l-.418.733L6.154 3.54l.419-.733L229.302 129.69zm-6.364 8.46l-.418.732L-.209 11.998l.418-.733 222.729 126.884zm-6.364 8.458l-.417.733L-6.573 20.457l.418-.733 222.73 126.884zm-6.363 8.46l-.418.732-222.73-126.884.418-.734 222.73 126.885zm-6.364 8.458l-.418.733L-19.3 37.375l.418-.734 222.729 126.885zm-6.364 8.46l-.417.732-222.73-126.884.418-.734 222.73 126.885zm-6.363 8.458l-.418.733-222.73-126.884.418-.734 222.73 126.885z"/>
                </g>
            </g>
            <path fill="url(#c)" fill-rule="nonzero" d="M290.887 252.18v-45.596h44.626c29.678-10.44 67.31-10.44 96.988 0h44.626v45.597c.084 13.785-9.007 27.585-27.274 38.103-36.366 20.939-95.326 20.939-131.692 0-18.266-10.518-27.358-24.318-27.273-38.103z"/>
            <path fill="#2590DF" d="M348.942 202.685c12.86-3.005 26.65-4.287 40.304-3.847v107.066c-13.654.44-27.444-.842-40.304-3.847v-99.372z" opacity=".64"/>
            <path fill="#1047A7" d="M318.161 242.975c36.366 20.939 95.327 20.939 131.692 0 36.366-20.94 36.366-54.888 0-75.826-36.365-20.94-95.326-20.94-131.692 0-36.365 20.938-36.365 54.887 0 75.826z"/>
            <path fill="url(#p)" fill-rule="nonzero" d="M0 70.044V38.528h31.011c20.624-7.215 46.775-7.215 67.399 0h31.01v31.516c.06 9.528-6.259 19.067-18.952 26.336-25.271 14.473-66.244 14.473-91.515 0C6.26 89.11-.058 79.572 0 70.044z" transform="translate(319.297 134.098)"/>
            <path fill="#FFF" d="M338.25 197.361c25.271 14.473 66.244 14.473 91.515 0 25.27-14.472 25.27-37.937 0-52.41-25.271-14.471-66.244-14.471-91.515 0-25.271 14.473-25.271 37.938 0 52.41z"/>
            <path fill="url(#c)" fill-rule="nonzero" d="M0 47.291h168.09v13.353c.075 12.34-8.13 24.694-24.617 34.11-32.821 18.743-86.035 18.743-118.857 0C8.13 85.338-.076 72.984.001 60.644L0 47.291z" transform="translate(300.357 117.54)"/>
            <path fill="#1985D4" d="M389.246 226.272c-13.721.45-27.599-1.013-40.304-4.388V185.04h40.304v41.232z"/>
            <path fill="#1047A7" d="M324.973 199.647c32.822 18.784 86.036 18.784 118.858 0 32.821-18.783 32.821-49.237 0-68.02-32.822-18.783-86.036-18.783-118.858 0-32.821 18.783-32.821 49.237 0 68.02z"/>
            <path fill="url(#c)" fill-rule="nonzero" d="M0 41.79h149.15v16.828c.067 10.839-7.214 21.69-21.843 29.96-29.123 16.465-76.341 16.465-105.465 0C7.214 80.308-.068 69.457 0 58.618V41.79z" transform="translate(309.827 107.289)"/>
            <path fill="#FFF" d="M331.67 179.975c29.123 16.628 76.341 16.628 105.464 0 29.124-16.628 29.124-43.587 0-60.215-29.123-16.628-76.341-16.628-105.465 0-29.123 16.628-29.123 43.587 0 60.215z"/>
            <path fill="url(#q)" d="M47.75 0l46.258 26.906v80.716L47.75 80.695zM47.75 0L0 26.906v80.716l47.75-26.905z" opacity=".6" transform="translate(337.534 32.305)"/>
            <path fill="url(#e)" d="M.27 8.02l14.311 8.098v16.195L.271 24.216z" transform="rotate(-30 291.7 -638.131)"/>
            <path fill="url(#f)" d="M14.581 8.02l13.924 8.098v16.195L14.581 24.27z" transform="scale(-1 1) rotate(30 -270.157 -718.531)"/>
            <path fill="#C0FFF4" d="M386.843 53.05l-8.01 13.975-16.442.143 8.316-14.063z"/>
            <path fill="url(#e)" d="M.269 8.03l14.31 8.097v16.195L.27 24.224z" transform="rotate(-60 275.097 -283.072)"/>
            <path fill="url(#f)" d="M14.58 8.03l13.923 8.097v16.195L14.58 24.278z" transform="scale(-1 1) rotate(60 -253.556 -320.383)"/>
            <path fill="#C0FFF4" d="M403.902 76.036l.05 16.107-14.168 8.344.17-16.337z"/>
            <path fill="url(#f)" d="M.27 8.02l14.311 8.098v16.195L.271 24.216z" transform="rotate(-120 220.173 -42.03)"/>
            <path fill="#C0FFF4" d="M359.353 98.934l13.975 8.01 14.025-8.098-13.928-8.037z"/>
            <path fill="url(#e)" d="M.27 8.02l13.924 8.098 14.311-8.097L14.271 0z" transform="scale(1 -1) rotate(-60 87.186 -356.431)"/>
            <path fill="url(#q)" d="M94.008 26.498l-47.75 26.905v79.222l47.75-25.41z" opacity=".6" transform="translate(337.534 32.305)"/>
            <path fill="url(#q)" d="M0 26.498l46.258 26.905v79.222L0 107.215z" opacity=".6" transform="translate(337.534 32.305)"/>
            <path fill="url(#q)" d="M309.827 51.09h149.15v98.398c0 10.994-7.28 21.988-21.843 30.376-29.123 16.776-76.341 16.776-105.465 0-14.561-8.388-21.842-19.382-21.842-30.376V51.089z" opacity=".6"/>
            <path fill="url(#r)" d="M338.866 58.684h3.182v86.19c0 .235-.155.47-.466.648-.62.358-1.628.358-2.25 0-.31-.179-.466-.413-.466-.648v-86.19zM416.026 32.514h3.182v86.19c0 .235-.155.47-.466.648-.621.358-1.629.358-2.25 0-.31-.179-.466-.413-.466-.648v-86.19zM370.685 17.447h3.182v86.19c0 .234-.156.469-.466.647-.621.358-1.629.358-2.25 0-.31-.178-.466-.413-.466-.648v-86.19zM445.458 0h3.182v86.19c0 .234-.155.469-.466.648-.621.358-1.628.358-2.25 0-.31-.18-.466-.414-.466-.648V0zM317.389 21.412h3.182v86.19c0 .234-.155.469-.466.648-.621.358-1.629.358-2.25 0-.31-.18-.466-.414-.466-.648v-86.19z"/>
            <ellipse cx="468.129" cy="132.039" fill="#00FFF6" rx="1.193" ry="1.19"/>
            <ellipse cx="386.992" cy="204.205" fill="#00FFF6" rx="1.193" ry="1.19"/>
            <ellipse cx="348.81" cy="204.998" fill="#00FFF6" rx="1.193" ry="1.19"/>
            <ellipse cx="451.424" cy="216.1" fill="#00FFF6" rx="1.193" ry="1.19"/>
            <ellipse cx="324.15" cy="183.586" fill="#00FFF6" rx="1.193" ry="1.19"/>
            <ellipse cx="325.741" cy="158.209" fill="#00FFF6" rx="1.193" ry="1.19"/>
            <ellipse cx="457.788" cy="177.242" fill="#00FFF6" rx="1.193" ry="1.19"/>
            <ellipse cx="299.491" cy="150.279" fill="#00FFF6" rx="1.193" ry="1.19"/>
            <ellipse cx="313.014" cy="108.249" fill="#00FFF6" rx="1.193" ry="1.19"/>
            <ellipse cx="474.493" cy="158.209" fill="#00FFF6" rx="1.193" ry="1.19"/>
            <ellipse cx="396.537" cy="156.623" fill="#FFF" rx="1.193" ry="1.19"/>
            <ellipse cx="352.787" cy="176.449" fill="#FFF" rx="1.193" ry="1.19"/>
            <ellipse cx="409.265" cy="184.379" fill="#FFF" rx="1.193" ry="1.19"/>
            <ellipse cx="425.174" cy="155.83" fill="#FFF" rx="1.193" ry="1.19"/>
            <ellipse cx="364.719" cy="155.83" fill="#FFF" rx="1.193" ry="1.19"/>
            <ellipse cx="379.833" cy="135.211" fill="#FFF" rx="1.193" ry="1.19"/>
            <ellipse cx="394.151" cy="113.8" fill="#FFF" rx="1.193" ry="1.19"/>
        </g>
        <g>
            <path fill="#1049AD" d="M798.036 136.363V332.77l-9.91 6.05-227.198-141.594L551 6.868 560.928.82z"/>
            <path fill="url(#s)" d="M236.342 141.775V338L0 202.582V6.357z" transform="translate(551 .82)"/>
            <path fill="#FFF" d="M778.787 144.299v181.805L559.555 200.638V18.832z"/>
            <path fill="#1049AD" d="M805.174 238.353l-101.091-57.62a1.2 1.2 0 0 0-1.372.128l-4.72 4.01 4.633 74.618 98.031 63.21 4.587-3.037a1.2 1.2 0 0 0 .538-1v-79.266a1.2 1.2 0 0 0-.606-1.043z"/>
            <path fill="#FFF" d="M800.052 242.167L699.296 184.66a1.2 1.2 0 0 0-1.794 1.042v76.91c0 .429.227.824.598 1.039l102.557 59.47v-79.91a1.2 1.2 0 0 0-.605-1.043z"/>
            <path fill="url(#t)" d="M55.528 107.046L8.917 133.575v-47.04l46.17-26.305z" transform="matrix(-1 0 0 1 805.801 180.513)"/>
            <path fill="url(#u)" d="M5.75 61.654L106.504 4.145a1.2 1.2 0 0 1 1.795 1.042v17.725L5.144 82.028V62.696c0-.43.23-.828.605-1.042z" transform="matrix(-1 0 0 1 805.801 180.513)"/>
            <path fill="url(#v)" fill-rule="nonzero" d="M104.177 61.071v5.086L65.762 88.49v-5.086l38.415-22.332zm0 12.715v5.086l-38.41 22.297v-5.086l38.41-22.297zm.035-40.794v20.344L65.68 75.717V55.374l38.53-22.382z" transform="matrix(-1 0 0 1 805.801 180.513)"/>
            <g>
                <path fill="#9AECFF" d="M587.733 60.686c2.705-.053 4.638.415 5.8 1.402 1.743 1.48 3.644 12.24 3.606 24.279-.025 8.026-.264 17.9-.718 29.621-.134 3.042-2.134 3.931-6 2.669-5.798-1.894-17.581-5.869-17.554-14.55.028-8.681-.508-17.025 2.336-28.293 1.896-7.512 6.073-12.555 12.53-15.128zm24.793 14.06c6.418 9.875 10.548 19.63 12.39 29.261 2.763 14.448 2.177 22.156 2.15 30.837-.028 8.682-11.794-.699-17.584-5.377-3.86-3.119-5.847-6.27-5.961-9.452-.378-12.193-.554-22.303-.529-30.329.038-12.039 2-20.607 3.746-20.11 1.164.332 3.093 2.056 5.788 5.17z"/>
                <path fill="#1673CE" d="M600.079 83.846c-.178.344-.446.574-.783.653-4.408 1.04-7.215 3.312-8.42 6.817-1.298 3.77-.452 7.252 2.537 10.448-1.414-.801-2.497-2.209-3.248-4.222-.114-.304-.307-.566-.521-.706-.369-.242-.689-.056-.715.415-.301 4.897 1.256 9.346 4.67 13.347-2.706-2.285-4.303-5.256-4.791-8.911.768 5.503.864 9.124.287 10.862l-.31-3.836c-.36 1.297-1.113 2.372-2.258 3.224 1.291-2.083 1.798-4.236 1.52-6.459-.28-2.222-.556-5.007-.83-8.354 0 0-1.501.275-4.288 1.229-1.859.635-3.362 1.847-4.51 3.636.434-1.63 1.724-3.152 3.87-4.562-2.421-1.936-4.063-2.023-4.925-.26.601-2.16 2.088-2.45 4.46-.872 1.109.737 2.208.896 3.064.443.496-.262.875-.498 1.136-.705.918-.73 1.695-2.328 2.33-4.798a.64.64 0 0 0 .016-.196c-.02-.32-.225-.667-.46-.775-1.491-.68-2.927-1.329-4.307-1.946-1.569-.702-2.57.044-3.006 2.237.013-3.935 1.085-4.453 5.361-2.028 4.276 2.425 6.002-1.664 6.866-3.99.576-1.55-1.56-3.137-6.41-4.76-.502.726-1.217 1.165-2.146 1.316-.928.151-2.142.026-3.64-.375 1.712.408 3.07-.042 4.074-1.35-2.422-1.561-4.13-3.374-5.123-5.44 2.845 3.304 5.624 5.067 8.336 5.292-1.066-1.45-.633-2.894-.626-5.142a7.014 7.014 0 0 0-1.272-4.1c1.423 1.37 2.13 3.367 2.123 5.99-.009 2.623.63 3.924 1.915 3.902-1.553-5.76-.471-9.089 3.244-9.985-4.934 2.574-2.61 12.878.817 12.57.957-.086 1.752-.298 2.385-.634 1.07-.57 1.693-1.956 1.698-3.785l.05-15.639 3.789 2.149-.05 15.638c-.006 1.83.606 3.916 1.669 5.696.628 1.05 1.419 2.161 2.372 3.331 3.414 4.188 5.794-3.449.893-11.6 3.697 5.1 4.753 9.64 3.17 13.623 1.28 1.477 1.925.904 1.933-1.72.008-2.623.726-3.811 2.153-3.565-.857.265-1.289 1.146-1.293 2.645-.007 2.249.415 4.177-.657 4.414 2.704 2.848 5.484 4.237 8.34 4.167-1.002.933-2.715.806-5.14-.38.993 2.439 2.343 4.425 4.051 5.957-1.495-1.297-2.704-2.546-3.629-3.748-.924-1.202-1.634-2.45-2.13-3.742-4.842-3.872-6.981-4.71-6.417-2.513.846 3.295 2.54 9.324 6.817 11.75 4.275 2.424 5.34 4.155 5.328 8.09-.42-2.679-1.413-4.556-2.98-5.633a861.226 861.226 0 0 0-4.304-2.936c-.235-.16-.442-.047-.463.251a.826.826 0 0 0 .015.213c.617 3.18 1.38 5.652 2.29 7.418.26.504.636 1.167 1.128 1.99.85 1.42 1.946 2.506 3.055 3.026 2.374 1.114 3.854 3.087 4.44 5.92-.848-2.733-2.485-4.506-4.91-5.318 2.13 3.836 3.406 6.812 3.827 8.928a40.537 40.537 0 0 0-4.47-8.73c-2.771-4.105-4.264-6.078-4.264-6.078-.295 3.024-.589 5.485-.88 7.384-.292 1.9.2 4.618 1.473 8.156-1.135-2.145-1.879-4.068-2.23-5.77l-.332 3.472c-.564-2.384-.446-5.883.354-10.498-.51 3.09-2.12 4.242-4.83 3.455 3.427-.12 5.006-2.792 4.737-8.012-.023-.499-.34-1.046-.71-1.223-.213-.103-.408-.06-.523.114-.761 1.155-1.849 1.332-3.263.53 2.998.199 3.863-2.314 2.594-7.538-1.18-4.858-3.962-10.3-8.347-16.327-.335-.46-.6-.993-.776-1.537z"/>
            </g>
            <path fill="#B8FFF3" d="M573.653 165.289l18.433 10.176v27.216l-18.433-10.176v-27.216zm29.977-3.357l18.433 10.175v47.123l-18.433-10.176v-47.122zm29.93-10.716l18.433 10.176v74.36l-18.433-10.175v-74.361zm29.493-15.812l18.433 10.176v106.454l-18.433-10.176V135.404z"/>
        </g>
        <g>
            <path fill="url(#w)" d="M40.785 51l47.158-27.069v71.415l-47.158 27.541L0 99.067V27.653z" transform="translate(372 455.82)"/>
            <path fill="url(#x)" d="M40.785 51v71.887L0 99.067V27.653z" transform="translate(372 455.82)"/>
            <path fill="#5BFFCF" d="M419.173 455.82l40.77 23.82-47.22 27.321L372 483.371z" opacity=".78"/>
        </g>
        <g>
            <path fill="url(#w)" d="M40.785 51l47.158-27.069v71.415l-47.158 27.541L0 99.067V27.653z" transform="translate(537 272.82)"/>
            <path fill="url(#x)" d="M40.785 51v71.887L0 99.067V27.653z" transform="translate(537 272.82)"/>
            <path fill="#5BFFCF" d="M584.173 272.82l40.77 23.82-47.22 27.321L537 300.371z" opacity=".78"/>
        </g>
        <g>
            <path fill="url(#w)" d="M40.785 51l47.158-27.069v71.415l-47.158 27.541L0 99.067V27.653z" transform="translate(7 255.82)"/>
            <path fill="url(#x)" d="M40.785 51v71.887L0 99.067V27.653z" transform="translate(7 255.82)"/>
            <path fill="#5BFFCF" d="M54.173 255.82l40.77 23.82-47.22 27.321L7 283.371z" opacity=".78"/>
        </g>
        <g>
            <path fill="#CCD8F1" d="M674.025 456.531l142.208 85.124a2.073 2.073 0 0 1 0 3.607l-144.208 81.124a6.347 6.347 0 0 1-6.3 0l-142.208-85.124a2.073 2.073 0 0 1 0-3.607l144.207-81.124a6.347 6.347 0 0 1 6.301 0z" opacity=".55" style="mix-blend-mode:multiply"/>
            <path fill="#1049AD" d="M681.695 416.65l151.618 80.591a4309.8 4309.8 0 0 0 0 7.59c.002.408-.102.821-.323 1.2a2.398 2.398 0 0 1-.88.874l-150.415 86.12a7.276 7.276 0 0 1-7.223 0l-150.414-86.12a2.383 2.383 0 0 1-1.204-2.052c-.002-.274-.002-2.811 0-7.612l151.618-80.592a7.276 7.276 0 0 1 7.223 0z"/>
            <path fill="url(#a)" d="M158.985 1.41l150.414 86.12a2.377 2.377 0 0 1 0 4.135l-150.414 86.12a7.276 7.276 0 0 1-7.224 0L1.348 91.665a2.377 2.377 0 0 1 0-4.135L151.76 1.41a7.276 7.276 0 0 1 7.224 0z" transform="translate(522.71 407.941)"/>
        </g>
        <g>
            <path fill="#CCD8F1" d="M160.772 554.085l124.706 71.701a1.983 1.983 0 0 1 0 3.443l-124.706 71.702a6.01 6.01 0 0 1-5.989 0L30.077 629.229a1.983 1.983 0 0 1 0-3.443l124.706-71.701a6.01 6.01 0 0 1 5.989 0z" opacity=".55" style="mix-blend-mode:multiply"/>
            <path fill="#1069AD" d="M166.695 487.562l151.618 80.931c-.002 4.531-.002 7.072 0 7.622a2.403 2.403 0 0 1-1.204 2.082L166.695 664.68a7.25 7.25 0 0 1-7.223 0L9.058 578.198a2.395 2.395 0 0 1-1.204-2.06c-.002-.276-.002-2.824 0-7.645l151.618-80.93a7.25 7.25 0 0 1 7.223 0z"/>
            <path fill="url(#a)" d="M158.985 47.292l150.414 86.482a2.392 2.392 0 0 1 0 4.153l-150.414 86.482a7.25 7.25 0 0 1-7.224 0L1.348 137.927a2.392 2.392 0 0 1 0-4.153L151.76 47.292a7.25 7.25 0 0 1 7.224 0z" transform="translate(7.71 432.941)"/>
            <path fill="url(#v)" fill-rule="nonzero" d="M6.004 91.576c8.006 4.565 20.986 4.565 28.992 0 4.05-2.31 6.052-5.347 6.003-8.374-.017-1.04-.017-13.76 0-38.158V40.34c0-9.046-7.333-16.38-16.38-16.38l-8.239-.006C7.334 23.954 0 31.287 0 40.334v.006l.009 4.704C.012 69.47.009 82.204 0 83.251c-.026 3.012 1.976 6.027 6.004 8.325z" transform="translate(143 433)"/>
            <path fill="url(#y)" fill-rule="nonzero" d="M8.963 87.64c6.372 3.648 16.702 3.648 23.074 0 3.225-1.845 4.817-4.27 4.779-6.689-.014-.83-.014-12.392 0-34.684v-8.435H4.184l.006 8.435c.003 22.313.001 33.888-.006 34.724-.02 2.405 1.572 4.815 4.779 6.65z" transform="translate(143 433)"/>
            <path fill="url(#z)" fill-rule="nonzero" d="M8.963 44.132c6.372 3.46 16.702 3.46 23.074 0s6.372-9.071 0-12.532c-6.372-3.46-16.702-3.46-23.074 0s-6.372 9.071 0 12.532z" transform="translate(143 433)"/>
            <path fill="#3EBEF4" d="M172.676 526.767a26.352 26.352 0 0 0 2.895-1.006v-68.8h-2.895v69.806z" opacity=".2"/>
            <path fill="#3EBEF4" d="M158.081 527.586c2.416.376 4.93.496 7.407.36v-67.283a3.703 3.703 0 1 0-7.406 0v66.923z" opacity=".1"/>
            <path fill="#FCFCFC" d="M143 502.38l.009-21.393c4.507 5.605 11.337 8.407 20.49 8.407 9.154 0 15.987-2.802 20.5-8.407v21.343c-3.158 5.638-9.99 8.457-20.5 8.457-10.508 0-17.34-2.803-20.499-8.407z"/>
            <path fill="url(#A)" d="M9.136 31.168c6.045 3.476 15.846 3.476 21.891 0 3.06-1.759 4.57-4.07 4.534-6.376-.024-1.5-.024-6.933 0-16.3H4.602c.013 9.383.013 14.83 0 16.338-.02 2.293 1.492 4.589 4.534 6.338z" transform="translate(143 433)"/>
            <path fill="#FFF" d="M152.136 448.195c6.045 3.476 15.846 3.476 21.891 0 6.046-3.476 6.046-9.112 0-12.588-6.045-3.476-15.846-3.476-21.891 0-6.045 3.476-6.045 9.112 0 12.588z"/>
            <path fill="url(#B)" d="M9.136 14.352c6.045 3.283 15.846 3.283 21.891 0 6.046-3.283 6.046-8.606 0-11.89-6.045-3.283-15.846-3.283-21.891 0-6.045 3.284-6.045 8.607 0 11.89z" transform="translate(143 433)"/>
            <g>
                <path fill="url(#e)" d="M5.126 91.077c6.834 3.897 17.914 3.897 24.748 0 3.458-1.971 5.167-4.563 5.125-7.147-.014-.888-.014-11.743 0-32.568v-.496c0-9.665-7.835-17.5-17.5-17.5C7.84 33.366.008 41.198.008 50.86v.503C.01 72.21.007 83.08 0 83.972c-.022 2.57 1.686 5.145 5.126 7.105z" transform="translate(98 459)"/>
                <path fill="url(#C)" d="M7.651 87.719c5.44 3.113 14.259 3.113 19.698 0 2.752-1.575 4.112-3.645 4.079-5.71-.011-.709-.011-10.576 0-29.603v-7.2H3.571l.006 7.2c.003 19.044 0 28.923-.005 29.637-.018 2.053 1.342 4.11 4.079 5.676z" transform="translate(98 459)"/>
                <path fill="url(#f)" d="M7.651 50.583c5.44 2.954 14.259 2.954 19.698 0 5.44-2.953 5.44-7.742 0-10.696-5.44-2.954-14.259-2.954-19.698 0-5.44 2.954-5.44 7.743 0 10.696z" transform="translate(98 459)"/>
                <path fill="#C0FFF4" d="M123.333 551.948c.855-.244 1.682-.53 2.471-.86v-58.722h-2.471v59.582z" opacity=".2"/>
                <path fill="#C0FFF4" d="M110.874 552.647c2.063.32 4.208.423 6.323.306v-57.425a3.161 3.161 0 1 0-6.322 0v57.119z" opacity=".35"/>
                <path fill="#FCFCFC" d="M98 531.133l.007-18.26c3.848 4.784 9.679 7.176 17.493 7.176 7.814 0 13.647-2.392 17.5-7.175v18.216c-2.696 4.812-8.53 7.218-17.5 7.218s-14.804-2.392-17.5-7.175z"/>
                <path fill="url(#A)" d="M3.87 14.332c5.16 2.966 13.528 2.966 18.688 0 2.611-1.502 3.901-3.475 3.87-5.442-.02-1.28-.02-1.733 0-1.356H0c.011-.362.011.1 0 1.388-.017 1.957 1.273 3.917 3.87 5.41z" transform="translate(101.929 484.473)"/>
                <path fill="#FFF" d="M105.799 497.442c5.16 2.967 13.527 2.967 18.688 0 5.16-2.967 5.16-7.777 0-10.744-5.16-2.966-13.528-2.966-18.688 0-5.16 2.967-5.16 7.777 0 10.744z"/>
                <path fill="url(#B)" d="M3.87 12.25c5.16 2.802 13.528 2.802 18.688 0 5.16-2.803 5.16-7.346 0-10.148-5.16-2.803-13.527-2.803-18.688 0-5.16 2.802-5.16 7.345 0 10.147z" transform="translate(101.929 484.473)"/>
                <g>
                    <path fill="url(#A)" d="M3.557 21.296c4.742 2.745 12.43 2.745 17.172 0 2.4-1.39 3.585-3.216 3.556-5.036-.019-1.186-.019-4.281 0-9.288H0c.01 5.02.01 8.126 0 9.317-.015 1.811 1.17 3.625 3.557 5.007z" transform="translate(103 475.145)"/>
                    <path fill="#FFF" d="M106.557 487.147c4.742 2.745 12.43 2.745 17.172 0 4.742-2.746 4.742-7.197 0-9.943-4.742-2.745-12.43-2.745-17.172 0-4.743 2.746-4.743 7.197 0 9.943z"/>
                    <path fill="url(#D)" d="M3.557 11.267c4.742 2.578 12.43 2.578 17.172 0 4.742-2.577 4.742-6.756 0-9.334-4.742-2.577-12.43-2.577-17.172 0-4.743 2.578-4.743 6.757 0 9.334z" transform="translate(103 475.145)"/>
                </g>
                <g>
                    <path fill="url(#A)" d="M1.83 24.956c2.441 1.447 6.399 1.447 8.84 0 1.234-.732 1.845-1.695 1.83-2.654-.01-.625-.01-1.093 0-1.405H0c.005.319.005.792 0 1.42-.008.955.602 1.91 1.83 2.64z" transform="translate(108.714 459)"/>
                    <path fill="#FFF" d="M110.545 482.548c2.44 1.447 6.398 1.447 8.839 0 2.44-1.448 2.44-3.794 0-5.241-2.441-1.447-6.398-1.447-8.84 0-2.44 1.447-2.44 3.793 0 5.24z"/>
                    <path fill="url(#B)" d="M1.83 23.16c2.441 1.36 6.399 1.36 8.84 0 2.44-1.358 2.44-3.561 0-4.92-2.441-1.358-6.399-1.358-8.84 0-2.44 1.359-2.44 3.562 0 4.92z" transform="translate(108.714 459)"/>
                    <path fill="url(#B)" d="M2.893 22.48c1.953 1.12 5.118 1.12 7.071 0 .988-.567 1.476-1.312 1.464-2.055-.003-.221-.004-5.363-.001-15.425a4.998 4.998 0 0 0-4.999-5A5 5 0 0 0 1.43 5c.002 10.069.002 15.214 0 15.437-.007.739.481 1.48 1.464 2.043z" transform="translate(108.714 459)"/>
                </g>
            </g>
            <g>
                <path fill="url(#v)" fill-rule="nonzero" d="M9.532 83.403c8.543 4.796 22.393 4.796 30.936 0 4.323-2.427 6.458-5.618 6.406-8.798-.018-1.093-.018-14.455 0-40.088V12.365H3.125l.01 22.152c.003 25.66 0 39.04-.01 40.14-.027 3.163 2.108 6.332 6.407 8.746z" transform="translate(36 494)"/>
                <path fill="url(#y)" fill-rule="nonzero" d="M11.426 81.178c7.497 4.23 19.651 4.23 27.148 0 3.793-2.14 5.667-4.954 5.622-7.76-.016-.963-.016-14.372 0-40.228v-9.784H5.804l.008 9.784c.003 25.88 0 39.305-.008 40.275-.025 2.79 1.85 5.584 5.622 7.713z" transform="translate(36 494)"/>
                <path fill="url(#z)" fill-rule="nonzero" d="M12.689 33.558c6.8 3.636 17.823 3.636 24.622 0 6.8-3.636 6.8-9.53 0-13.166-6.8-3.636-17.823-3.636-24.622 0-6.8 3.636-6.8 9.53 0 13.166z" transform="translate(36 494)"/>
                <path fill="#3EBEF4" d="M70.791 579.705c1.069-.3 2.102-.653 3.09-1.058v-72.282h-3.09v73.34z" opacity=".2"/>
                <path fill="#3EBEF4" d="M55.218 580.565c2.578.396 5.26.521 7.903.377v-70.625a3.952 3.952 0 0 0-7.903 0v70.248z" opacity=".1"/>
                <path fill="#FCFCFC" d="M41.876 562.287l.008-24.413c4.253 3.409 10.7 5.113 19.339 5.113 8.64 0 15.088-1.704 19.347-5.113v24.366c-4.807 3.455-11.257 5.183-19.347 5.183-8.09 0-14.54-1.712-19.347-5.136z"/>
                <g transform="translate(36 508)">
                    <mask id="G" fill="#fff">
                        <use xlink:href="#E"/>
                    </mask>
                    <use fill="url(#A)" xlink:href="#E"/>
                    <path fill="url(#F)" d="M2-5h1v38H2V-5zm3 0h1v38H5V-5zm3 0h1v38H8V-5zm3 0h1v38h-1V-5zm3 0h1v38h-1V-5zm3 0h1v38h-1V-5zm3 0h1v38h-1V-5zm3 0h1v38h-1V-5zm3 0h1v38h-1V-5zm3 0h1v38h-1V-5zm3 0h1v38h-1V-5zm3 0h1v38h-1V-5zm3 0h1v38h-1V-5zm3 0h1v38h-1V-5zm3 0h1v38h-1V-5zm3 0h1v38h-1V-5z" mask="url(#G)" opacity=".5"/>
                </g>
                <path fill="#FFF" d="M43.322 518.161c9.763 5.527 25.593 5.527 35.356 0 9.763-5.527 9.763-14.488 0-20.016-9.763-5.527-25.593-5.527-35.356 0-9.763 5.528-9.763 14.489 0 20.016z"/>
                <path fill="url(#B)" d="M7.322 22.82c9.763 5.221 25.593 5.221 35.356 0 9.763-5.22 9.763-13.684 0-18.905-9.763-5.22-25.593-5.22-35.356 0-9.763 5.221-9.763 13.685 0 18.906z" transform="translate(36 494)"/>
            </g>
            <g>
                <path fill="#1069AD" d="M106.932 601.401l56.384 32.626a10.41 10.41 0 0 0 10.43 0l98.038-56.578a3.484 3.484 0 0 0 1.74-3.016v-2.347c-.808-.244-1.387-.468-1.74-.672L215.4 538.79a10.41 10.41 0 0 0-10.43 0l-98.038 56.577c-.39.226-.97.444-1.738.652.003 1.184.003 1.963 0 2.336a3.48 3.48 0 0 0 1.739 3.047z"/>
                <path fill="url(#b)" d="M166.65 64.221l-56.384 32.626a10.41 10.41 0 0 1-10.43 0L1.798 40.27a3.489 3.489 0 0 1 0-6.035L58.182 1.609a10.41 10.41 0 0 1 10.43 0l98.038 56.577a3.489 3.489 0 0 1 0 6.035z" transform="matrix(-1 0 0 1 273.582 535.09)"/>
                <g>
                    <path fill="url(#H)" d="M3.283 11.93c3.74 1.964 9.802 1.964 13.541 0 1.862-.977 2.797-2.256 2.805-3.537.005-.861.005-2.051 0-3.57H.479c-.002 1.514-.002 2.7 0 3.558.002 1.285.937 2.57 2.804 3.55z" transform="translate(200.94 547.866)"/>
                    <path fill="url(#H)" d="M3.283 8.58c3.74 1.963 9.802 1.963 13.541 0 3.74-1.963 3.74-5.145 0-7.108-3.739-1.963-9.801-1.963-13.54 0-3.74 1.963-3.74 5.145 0 7.108z" transform="translate(200.94 547.866)"/>
                    <path fill="#FFF" d="M203.469 556c-2.965-1.972-2.714-4.842.754-6.662 3.248-1.705 8.248-1.93 11.956-.673L203.47 556zm14.839-6.352c3.186 1.974 3.005 4.935-.544 6.798-3.329 1.747-8.5 1.939-12.232.575l12.776-7.373z"/>
                    <path fill="url(#H)" d="M3.283 11.93c3.74 1.964 9.802 1.964 13.541 0 1.862-.977 2.797-2.256 2.805-3.537.005-.861.005-2.051 0-3.57H.479c-.002 1.514-.002 2.7 0 3.558.002 1.285.937 2.57 2.804 3.55z" transform="translate(229.186 564.62)"/>
                    <path fill="url(#H)" d="M3.283 8.58c3.74 1.963 9.802 1.963 13.541 0 3.74-1.963 3.74-5.145 0-7.108-3.739-1.963-9.801-1.963-13.54 0-3.74 1.963-3.74 5.145 0 7.108z" transform="translate(229.186 564.62)"/>
                    <path fill="#FFF" d="M231.715 572.754c-2.965-1.973-2.713-4.842.755-6.663 3.247-1.704 8.247-1.929 11.956-.672l-12.71 7.335zm14.84-6.353c3.185 1.975 3.004 4.936-.544 6.798-3.33 1.748-8.5 1.94-12.233.575l12.777-7.373z"/>
                    <path fill="url(#H)" d="M3.283 11.93c3.74 1.964 9.802 1.964 13.541 0 1.862-.977 2.797-2.256 2.805-3.537.005-.861.005-2.051 0-3.57H.479c-.002 1.514-.002 2.7 0 3.558.002 1.285.937 2.57 2.804 3.55z" transform="translate(176.045 562.226)"/>
                    <path fill="url(#H)" d="M3.283 8.58c3.74 1.963 9.802 1.963 13.541 0 3.74-1.963 3.74-5.145 0-7.108-3.739-1.963-9.801-1.963-13.54 0-3.74 1.963-3.74 5.145 0 7.108z" transform="translate(176.045 562.226)"/>
                    <path fill="#FFF" d="M178.574 570.36c-2.966-1.972-2.714-4.842.754-6.662 3.248-1.705 8.248-1.929 11.956-.673l-12.71 7.336zm14.839-6.352c3.186 1.975 3.005 4.935-.544 6.798-3.329 1.747-8.5 1.94-12.233.575l12.777-7.373z"/>
                    <g>
                        <path fill="url(#H)" d="M3.283 11.93c3.74 1.964 9.802 1.964 13.541 0 1.862-.977 2.797-2.256 2.805-3.537.005-.861.005-2.051 0-3.57H.479c-.002 1.514-.002 2.7 0 3.558.002 1.285.937 2.57 2.804 3.55z" transform="translate(204.291 578.98)"/>
                        <path fill="url(#H)" d="M3.283 8.58c3.74 1.963 9.802 1.963 13.541 0 3.74-1.963 3.74-5.145 0-7.108-3.739-1.963-9.801-1.963-13.54 0-3.74 1.963-3.74 5.145 0 7.108z" transform="translate(204.291 578.98)"/>
                        <path fill="#FFF" d="M206.82 587.114c-2.965-1.972-2.714-4.842.755-6.663 3.247-1.704 8.247-1.928 11.956-.672l-12.71 7.335zm14.84-6.353c3.185 1.975 3.004 4.936-.544 6.798-3.33 1.748-8.5 1.94-12.233.576l12.776-7.374z"/>
                    </g>
                    <g>
                        <path fill="url(#H)" d="M3.283 11.93c3.74 1.964 9.802 1.964 13.541 0 1.862-.977 2.797-2.256 2.805-3.537.005-.861.005-2.051 0-3.57H.479c-.002 1.514-.002 2.7 0 3.558.002 1.285.937 2.57 2.804 3.55z" transform="translate(151.15 576.107)"/>
                        <path fill="url(#H)" d="M3.283 8.58c3.74 1.963 9.802 1.963 13.541 0 3.74-1.963 3.74-5.145 0-7.108-3.739-1.963-9.801-1.963-13.54 0-3.74 1.963-3.74 5.145 0 7.108z" transform="translate(151.15 576.107)"/>
                        <path fill="#FFF" d="M153.678 584.242c-2.965-1.972-2.713-4.842.755-6.663 3.247-1.704 8.248-1.928 11.956-.672l-12.71 7.335zm14.84-6.353c3.186 1.975 3.004 4.936-.544 6.798-3.329 1.748-8.5 1.94-12.233.575l12.777-7.373z"/>
                    </g>
                    <g>
                        <path fill="url(#H)" d="M3.283 11.93c3.74 1.964 9.802 1.964 13.541 0 1.862-.977 2.797-2.256 2.805-3.537.005-.861.005-2.051 0-3.57H.479c-.002 1.514-.002 2.7 0 3.558.002 1.285.937 2.57 2.804 3.55z" transform="translate(179.396 592.86)"/>
                        <path fill="url(#H)" d="M3.283 8.58c3.74 1.963 9.802 1.963 13.541 0 3.74-1.963 3.74-5.145 0-7.108-3.739-1.963-9.801-1.963-13.54 0-3.74 1.963-3.74 5.145 0 7.108z" transform="translate(179.396 592.86)"/>
                        <path fill="#FFF" d="M181.925 600.996c-2.965-1.973-2.714-4.843.754-6.663 3.248-1.705 8.248-1.929 11.957-.672l-12.711 7.335zm14.84-6.353c3.185 1.975 3.004 4.935-.544 6.798-3.33 1.747-8.5 1.94-12.233.575l12.776-7.373z"/>
                    </g>
                    <g>
                        <path fill="url(#H)" d="M3.283 11.93c3.74 1.964 9.802 1.964 13.541 0 1.862-.977 2.797-2.256 2.805-3.537.005-.861.005-2.051 0-3.57H.479c-.002 1.514-.002 2.7 0 3.558.002 1.285.937 2.57 2.804 3.55z" transform="translate(126.733 590.468)"/>
                        <path fill="url(#H)" d="M3.283 8.58c3.74 1.963 9.802 1.963 13.541 0 3.74-1.963 3.74-5.145 0-7.108-3.739-1.963-9.801-1.963-13.54 0-3.74 1.963-3.74 5.145 0 7.108z" transform="translate(126.733 590.468)"/>
                        <path fill="#FFF" d="M129.262 598.602c-2.965-1.972-2.714-4.842.754-6.662 3.248-1.705 8.248-1.93 11.957-.673l-12.711 7.335zm14.84-6.352c3.185 1.974 3.004 4.935-.544 6.798-3.33 1.747-8.5 1.939-12.233.575l12.776-7.373z"/>
                    </g>
                    <g>
                        <path fill="url(#H)" d="M3.283 11.93c3.74 1.964 9.802 1.964 13.541 0 1.862-.977 2.797-2.256 2.805-3.537.005-.861.005-2.051 0-3.57H.479c-.002 1.514-.002 2.7 0 3.558.002 1.285.937 2.57 2.804 3.55z" transform="translate(154.98 607.221)"/>
                        <path fill="url(#H)" d="M3.283 8.58c3.74 1.963 9.802 1.963 13.541 0 3.74-1.963 3.74-5.145 0-7.108-3.739-1.963-9.801-1.963-13.54 0-3.74 1.963-3.74 5.145 0 7.108z" transform="translate(154.98 607.221)"/>
                        <path fill="#FFF" d="M157.508 615.356c-2.965-1.973-2.713-4.842.755-6.663 3.248-1.705 8.248-1.929 11.956-.672l-12.71 7.335zm14.84-6.353c3.186 1.975 3.004 4.936-.544 6.798-3.329 1.748-8.5 1.94-12.233.575l12.777-7.373z"/>
                    </g>
                </g>
            </g>
        </g>
        <g>
            <path fill="#1049AD" d="M791.028 490.66l-88.505 51.119a16.366 16.366 0 0 1-16.372 0l-139.127-80.357a5.458 5.458 0 0 1-2.73-4.727v-3.676c1.267-.383 2.177-.733 2.73-1.053l88.505-51.119a16.366 16.366 0 0 1 16.372 0l139.127 80.357c.614.355 1.524.695 2.73 1.022a378.305 378.305 0 0 0 0 3.66 5.458 5.458 0 0 1-2.73 4.774z"/>
            <path fill="url(#b)" d="M246.826 153.334l-88.505 51.118a16.366 16.366 0 0 1-16.372 0L2.822 124.096a5.46 5.46 0 0 1 0-9.456l88.505-51.12a16.366 16.366 0 0 1 16.372 0l139.127 80.358a5.46 5.46 0 0 1 0 9.456z" transform="translate(544.202 334.05)"/>
            <path fill="#5D63DD" d="M601.317 426.09c.288-.167.288-.437 0-.603-.288-.167-.755-.167-1.044 0-.288.166-.288.436 0 .603.289.166.756.166 1.044 0z"/>
            <path fill="#1049AD" d="M742.625 510.72c1.726-.998 1.726-2.616 0-3.613-1.727-.998-4.527-.998-6.253 0-1.727.997-1.727 2.615 0 3.613 1.726.997 4.526.997 6.253 0z"/>
            <path fill="url(#I)" d="M235.6 145.724l-90.827 52.46a3.75 3.75 0 0 1-3.751 0l-127.429-73.6a1.5 1.5 0 0 1 0-2.598l90.827-52.46a3.75 3.75 0 0 1 3.751 0l127.429 73.6a1.5 1.5 0 0 1 0 2.598z" transform="translate(544.202 334.05)"/>
            <path fill="#1069AD" d="M636.759 474.527h-4.345v9.757h4.345z"/>
            <path fill="#1049AD" d="M632.414 481.741v3.452c.118.575.553 1.135 1.325 1.575l47.534 27.115c1.767 1.008 4.632 1.008 6.399 0l24.927-14.22c.618-.352.956-.83.946-1.324l-.027-3.241-1.165-2.073 30.622-17.468c.911-.52 1.352-1.205 1.324-1.886l.002-3.227-111.887 11.297z"/>
            <path fill="#1069AD" d="M712.353 489.773l30.622-17.468c1.767-1.008 1.767-2.642 0-3.65l-41.592-23.726c-1.767-1.008-4.632-1.008-6.399 0l-61.245 34.937c-1.767 1.008-1.767 2.642 0 3.65l47.534 27.115c1.767 1.008 4.632 1.008 6.399 0l24.927-14.22c.709-.404 1.049-.974.919-1.541l-1.165-5.097z"/>
            <path fill="#FFF" d="M687.871 455.574l-48.234 27.504a1.384 1.384 0 0 0 0 2.413l48.234 27.504a4.277 4.277 0 0 0 4.231 0l48.234-27.504a1.384 1.384 0 0 0 0-2.413l-48.234-27.504a4.277 4.277 0 0 0-4.23 0z"/>
            <path fill="url(#b)" d="M54.257 7.064L102.49 34.57a1.384 1.384 0 0 1 0 2.412L54.257 64.486a4.277 4.277 0 0 1-4.231 0L1.792 36.98a1.384 1.384 0 0 1 0-2.412L50.026 7.064a4.277 4.277 0 0 1 4.23 0z" transform="matrix(-1 0 0 1 744.3 444.173)"/>
            <path fill="#FFF" d="M690.044 449.07l-48.235 27.504a1.384 1.384 0 0 0 0 2.412l48.235 27.505a4.277 4.277 0 0 0 4.23 0l48.235-27.505a1.384 1.384 0 0 0 0-2.412l-48.234-27.505a4.277 4.277 0 0 0-4.231 0z"/>
            <g>
                <path fill="#1069AD" d="M632.414 473.069v3.451c.118.575.553 1.135 1.325 1.575l47.534 27.115c1.767 1.008 4.632 1.008 6.399 0l24.927-14.219c.618-.353.956-.831.946-1.324l-.027-3.242-1.165-2.072 30.622-17.469c.911-.52 1.352-1.205 1.324-1.886l.002-3.227-111.887 11.298z"/>
                <path fill="url(#b)" d="M31.948 45.6L1.325 28.132c-1.767-1.008-1.767-2.642 0-3.65L42.917.756c1.767-1.008 4.632-1.008 6.4 0l61.245 34.937c1.767 1.008 1.767 2.642 0 3.65L63.028 66.458c-1.767 1.008-4.632 1.008-6.399 0l-24.927-14.22c-.71-.404-1.05-.974-.92-1.542l1.166-5.096z" transform="matrix(-1 0 0 1 744.3 435.5)"/>
                <path fill="#3EBEF4" d="M688.766 439.804v61.53l10.617-6.056v-59.686c-1.517-.237-3.207-.015-4.399.664l-6.218 3.548z" opacity=".3"/>
                <path fill="#FDFDFD" d="M659.617 461.024l-20.073 11.397a.572.572 0 0 0 0 1l1.777 1.009c.544.31 1.216.31 1.76 0l20.074-11.397a.572.572 0 0 0 0-1l-1.778-1.009a1.787 1.787 0 0 0-1.76 0z"/>
            </g>
            <g>
                <path fill="url(#e)" d="M14.813 0l14.813 8.508v85.984l-14.813 8.509L0 94.492V8.508z" transform="translate(637.8 334.637)"/>
                <path fill="url(#f)" d="M14.813 16.898l14.813-8.39v85.984l-14.813 8.509z" transform="translate(637.8 334.637)"/>
                <path fill="#C0FFF4" d="M652.613 334.637l14.812 8.509-14.812 8.508-14.813-8.508z"/>
                <path fill="url(#J)" d="M14.813 0l14.813 8.508-14.813 8.509L0 8.508z" transform="translate(619.354 381.629)"/>
                <path fill="url(#e)" d="M14.813 0l14.813 8.508v49.837l-14.813 8.508L0 58.345V8.508z" transform="translate(619.354 381.629)"/>
                <path fill="#C0FFF4" d="M634.166 381.629l14.813 8.508-14.813 8.509-14.812-8.509z"/>
                <path fill="url(#f)" d="M14.813 16.898l14.813-8.39v49.837l-14.813 8.508z" transform="translate(619.354 381.629)"/>
                <g>
                    <path fill="url(#e)" d="M14.813 0l14.813 8.508V80.59l-14.813 8.509L0 80.589V8.51z" transform="translate(599.79 370.507)"/>
                    <path fill="url(#f)" d="M14.813 16.898l14.813-8.39V80.59l-14.813 8.509z" transform="translate(599.79 370.507)"/>
                    <path fill="#C0FFF4" d="M614.602 370.507l14.813 8.508-14.813 8.508-14.812-8.508z"/>
                </g>
                <g>
                    <path fill="url(#e)" d="M14.813 0l14.813 8.508v35.934L14.813 52.95 0 44.442V8.508z" transform="translate(580.226 417.776)"/>
                    <path fill="#C0FFF4" d="M595.038 417.776l14.813 8.509-14.813 8.508-14.812-8.508z"/>
                    <path fill="url(#f)" d="M14.813 16.898l14.813-8.39v35.934L14.813 52.95z" transform="translate(580.226 417.776)"/>
                </g>
            </g>
        </g>
    </g>
</svg>
