<svg xmlns="http://www.w3.org/2000/svg" width="607" height="405" viewBox="0 0 607 405">
    <defs>
        <linearGradient id="a" x1="50%" x2="50%" y1="-15.198%" y2="219.926%">
            <stop offset="0%" stop-color="#DBE8FD"/>
            <stop offset="100%" stop-color="#B4CCFB"/>
        </linearGradient>
        <linearGradient id="b" x1="105.907%" x2="-6.432%" y1="54.775%" y2="54.775%">
            <stop offset="0%" stop-color="#003182"/>
            <stop offset="100%" stop-color="#1174CE"/>
        </linearGradient>
        <linearGradient id="c" x1="50%" x2="50%" y1="0%" y2="81.908%">
            <stop offset="0%" stop-color="#FFF"/>
            <stop offset="100%" stop-color="#ECF1FF"/>
        </linearGradient>
        <filter id="d" width="131.9%" height="143.1%" x="-19.3%" y="-15%" filterUnits="objectBoundingBox">
            <feOffset dx="-11" dy="16" in="SourceAlpha" result="shadowOffsetOuter1"/>
            <feGaussianBlur in="shadowOffsetOuter1" result="shadowBlurOuter1" stdDeviation="15"/>
            <feColorMatrix in="shadowBlurOuter1" result="shadowMatrixOuter1" values="0 0 0 0 0.77254902 0 0 0 0 0.847058824 0 0 0 0 0.988235294 0 0 0 0.500254755 0"/>
            <feMerge>
                <feMergeNode in="shadowMatrixOuter1"/>
                <feMergeNode in="SourceGraphic"/>
            </feMerge>
        </filter>
        <linearGradient id="e" x1="143.468%" x2="-15.452%" y1="-85.849%" y2="100%">
            <stop offset="0%" stop-color="#39DAE7"/>
            <stop offset="100%" stop-color="#1174CE"/>
        </linearGradient>
        <filter id="f" width="203.9%" height="186.9%" x="-62.7%" y="-30.3%" filterUnits="objectBoundingBox">
            <feOffset dx="-11" dy="16" in="SourceAlpha" result="shadowOffsetOuter1"/>
            <feGaussianBlur in="shadowOffsetOuter1" result="shadowBlurOuter1" stdDeviation="15"/>
            <feColorMatrix in="shadowBlurOuter1" result="shadowMatrixOuter1" values="0 0 0 0 0.77254902 0 0 0 0 0.847058824 0 0 0 0 0.988235294 0 0 0 0.500254755 0"/>
            <feMerge>
                <feMergeNode in="shadowMatrixOuter1"/>
                <feMergeNode in="SourceGraphic"/>
            </feMerge>
        </filter>
        <filter id="g" width="218.8%" height="218.8%" x="-70.6%" y="-41.9%" filterUnits="objectBoundingBox">
            <feOffset dx="-9" dy="14" in="SourceAlpha" result="shadowOffsetOuter1"/>
            <feGaussianBlur in="shadowOffsetOuter1" result="shadowBlurOuter1" stdDeviation="13.5"/>
            <feColorMatrix in="shadowBlurOuter1" result="shadowMatrixOuter1" values="0 0 0 0 0.77254902 0 0 0 0 0.847058824 0 0 0 0 0.988235294 0 0 0 0.500254755 0"/>
            <feMerge>
                <feMergeNode in="shadowMatrixOuter1"/>
                <feMergeNode in="SourceGraphic"/>
            </feMerge>
        </filter>
        <linearGradient id="h" x1="131.547%" x2="50%" y1="-64.29%" y2="112.55%">
            <stop offset="0%" stop-color="#DBE8FD"/>
            <stop offset="100%" stop-color="#ABC7FC"/>
        </linearGradient>
        <filter id="i" width="218.8%" height="218.8%" x="-70.6%" y="-41.9%" filterUnits="objectBoundingBox">
            <feOffset dx="-9" dy="14" in="SourceAlpha" result="shadowOffsetOuter1"/>
            <feGaussianBlur in="shadowOffsetOuter1" result="shadowBlurOuter1" stdDeviation="13.5"/>
            <feColorMatrix in="shadowBlurOuter1" result="shadowMatrixOuter1" values="0 0 0 0 0.77254902 0 0 0 0 0.847058824 0 0 0 0 0.988235294 0 0 0 0.500254755 0"/>
            <feMerge>
                <feMergeNode in="shadowMatrixOuter1"/>
                <feMergeNode in="SourceGraphic"/>
            </feMerge>
        </filter>
    </defs>
    <g fill="none" fill-rule="evenodd">
        <path fill="#F3F8FF" d="M459.5 0l88.768 51.25v102.5L459.5 205l-88.768-51.25V51.25zM551 173l56 32.25v64.5L551 302l-56-32.25v-64.5zM471.5 276l43.5 25v50l-43.5 25-43.5-25v-50z"/>
        <g transform="translate(64)">
            <path fill="url(#a)" d="M20 0h230c11.046 0 20 8.954 20 20v365c0 11.046-8.954 20-20 20H20c-11.046 0-20-8.954-20-20V20C0 8.954 8.954 0 20 0z"/>
            <circle cx="135" cy="384" r="10" fill="#8DB0DE"/>
            <circle cx="135" cy="21" r="4" fill="url(#b)"/>
            <path fill="url(#c)" d="M12 40h246v325H12z"/>
            <path fill="#EBF1FD" d="M25 54h110v145H25V54zm122 0h99v145h-99V54z" style="mix-blend-mode:multiply"/>
        </g>
        <g filter="url(#d)" transform="translate(158 79)">
            <path fill="#F3F8FF" d="M0 21h332v223a2 2 0 0 1-2 2H2a2 2 0 0 1-2-2V21z"/>
            <path fill="#0BD1FE" d="M30 187.072h10.56v42.203H30v-42.203zm18.102 15.073H58.66v27.13h-10.56v-27.13zm18.101 15.072h10.56v12.058h-10.56v-12.058zM84.305 172h10.56v57.275h-10.56V172zM238 215.71h10.56v13.565H238V215.71zm18.102-13.565h10.559v27.13h-10.56v-27.13zm18.101 15.072h10.56v12.058h-10.56v-12.058zM292.305 172h10.56v57.275h-10.56V172zM105 187.072h10.56v42.203H105v-42.203zm18.102 15.073h10.559v27.13h-10.56v-27.13zm18.101 15.072h10.56v12.058h-10.56v-12.058zm18.102-24.145h10.56v36.203h-10.56v-36.203zM226.763 187v42.203h-10.56V187h10.56zm-18.102 15.072v27.13h-10.56v-27.13h10.56zm-18.102 15.073v12.058H180v-12.058h10.56z"/>
            <path fill="#99B8E2" d="M126 89h40.653a3 3 0 0 1 3 3v.39a3 3 0 0 1-3 3H126a3 3 0 0 1-3-3V92a3 3 0 0 1 3-3zm0 12.78h61.859a3 3 0 0 1 3 3v.39a3 3 0 0 1-3 3H126a3 3 0 0 1-3-3v-.39a3 3 0 0 1 3-3zm0 12.78h83.064a3 3 0 0 1 3 3v.39a3 3 0 0 1-3 3H126a3 3 0 0 1-3-3v-.39a3 3 0 0 1 3-3zM179.015 89h19.447a3 3 0 0 1 3 3v.39a3 3 0 0 1-3 3h-19.447a3 3 0 0 1-3-3V92a3 3 0 0 1 3-3zm31.808 0h19.447a3 3 0 0 1 3 3v.39a3 3 0 0 1-3 3h-19.447a3 3 0 0 1-3-3V92a3 3 0 0 1 3-3z"/>
            <path fill="#9ADF55" d="M79.636 141.663A41.095 41.095 0 0 1 61.2 146C38.445 146 20 127.592 20 104.884a40.894 40.894 0 0 1 3.751-17.165l18.957 10.923a19.417 19.417 0 0 0-1.024 6.242c0 10.756 8.737 19.476 19.515 19.476 2.678 0 5.23-.538 7.553-1.512l10.884 18.815zm6.262-3.118L74.893 119.58a19.428 19.428 0 0 0 4.814-7.464H102c-1.72 10.788-7.668 20.176-16.102 26.43zm16.78-33.884H80.83c-.357-9.774-7.868-17.726-17.46-18.785V64c21.663 1.122 38.93 18.836 39.307 40.661zM56.595 86.135a19.769 19.769 0 0 0-10 6.328l-19.14-10.97A41.715 41.715 0 0 1 56.595 64v22.135z"/>
            <path fill="url(#e)" fill-rule="nonzero" d="M2 0h328a2 2 0 0 1 2 2v19H0V2a2 2 0 0 1 2-2z"/>
        </g>
        <g filter="url(#f)" transform="translate(413 115)">
            <rect width="102" height="122" fill="#F3F8FF" rx="5"/>
            <path fill="#9ADF55" d="M56.923 55.281v-6.158h7.623V41.5h6.158v7.623h7.623v6.158h-7.623v7.623h-6.158V55.28h-7.623zm-8.869 3.035l4.4 1.47A6.548 6.548 0 0 1 56.925 66v2.234c0 1.513-1.125 2.79-2.505 2.955C49.602 72.396 44.782 73 39.962 73c-4.821 0-9.641-.604-14.34-1.789A2.998 2.998 0 0 1 23 68.234V66c0-2.82 1.8-5.322 4.468-6.214l4.4-1.47a4.548 4.548 0 0 0 3.088-3.919l-1.22-1.223a5 5 0 0 1-.947-1.324l-1.432-2.908a3.046 3.046 0 0 1-2.382-2.977l.005-1.945a3.04 3.04 0 0 1 2.035-2.862V38c0-3.866 3.127-7 6.984-7h3.925c3.857 0 6.984 3.134 6.984 7v3.158a3.04 3.04 0 0 1 2.035 2.862l.006 1.942c0 1.46-1.02 2.68-2.383 2.98l-1.432 2.908a5 5 0 0 1-.946 1.324l-1.22 1.223a4.548 4.548 0 0 0 3.086 3.92z"/>
            <path fill="url(#e)" fill-rule="nonzero" d="M5 0h92a5 5 0 0 1 5 5v9H0V5a5 5 0 0 1 5-5z"/>
            <path fill="#CFE0FD" d="M10 91h71v8H10zM10 103h42v8H10z"/>
        </g>
        <g>
            <g filter="url(#g)" transform="translate(35 112)">
                <circle cx="40" cy="40" r="40" fill="#FFF"/>
                <path d="M16 16h50v50H16z"/>
                <path fill="url(#h)" d="M32 18h3a9 9 0 0 1 9 9v12a7 7 0 0 1-7 7H13a7 7 0 0 1-7-7V27a9 9 0 0 1 9-9h3v-2h14v2zm-1 12h-5v-5a1 1 0 0 0-2 0v5h-5a1 1 0 0 0 0 2h5v5a1 1 0 0 0 2 0v-5h5a1 1 0 0 0 0-2zM17 6h16a3 3 0 0 1 3 3v2a3 3 0 0 1-3 3H17a3 3 0 0 1-3-3V9a3 3 0 0 1 3-3z" transform="translate(16 16)"/>
            </g>
            <g filter="url(#i)" transform="translate(59 212)">
                <circle cx="40" cy="40" r="40" fill="#FFF"/>
                <path d="M16 16h50v50H16z"/>
                <path fill="url(#h)" d="M26.578 13.035c1.828-1.246 4.766-1.29 7.33-.884 6.873 1.088 11.076 6.88 9.885 14.4-1.445 9.118-9.116 20.337-15.234 19.368-1.31-.208-2.503-.902-3.562-2.01-1.06 1.108-2.252 1.802-3.563 2.01-6.117.969-13.789-10.25-15.233-19.368-1.19-7.52 3.011-13.312 9.885-14.4 2.672-.424 5.26-.036 7.472 1.101.535-6.433 4.512-9.81 11.469-9.751a1.5 1.5 0 0 1-.026 3c-5.264-.045-7.926 2.054-8.423 6.534z" transform="translate(16 16)"/>
            </g>
        </g>
    </g>
</svg>
