<svg xmlns="http://www.w3.org/2000/svg" width="114" height="32" viewBox="0 0 114 32">
    <g fill="none" fill-rule="evenodd">
        <path fill="#313E59" d="M61.393 10.065v12.133H58.2v-1.34c-.79.977-1.966 1.653-3.632 1.653-3.343 0-5.872-2.742-5.872-6.386s2.529-6.386 5.872-6.386c1.666 0 2.83.676 3.632 1.666v-1.34h3.193zm-6.224 2.717c-1.915 0-3.13 1.49-3.13 3.343s1.215 3.344 3.13 3.344c1.866 0 3.13-1.428 3.13-3.344s-1.264-3.343-3.13-3.343zm15.708-3.043c2.755 0 4.72 1.916 4.72 4.733v7.726H72.33v-6.674c0-1.753-.877-2.717-2.367-2.717-1.402 0-2.567.914-2.567 2.742v6.65h-3.268V10.064h3.18v1.427c.865-1.29 2.192-1.753 3.57-1.753zm13.154 0c3.781 0 6.574 2.73 6.574 6.386 0 3.657-2.793 6.386-6.574 6.386-3.77 0-6.55-2.73-6.55-6.386s2.78-6.386 6.55-6.386zm0 3.043c-1.841 0-3.218 1.377-3.218 3.343s1.377 3.344 3.218 3.344c1.84 0 3.23-1.378 3.23-3.344s-1.39-3.343-3.23-3.343zm15.131-3.043c.702 0 1.253.1 1.703.263l-.488 3.243c-.538-.238-1.315-.388-1.978-.388-1.516 0-2.555.927-2.555 2.73v6.611h-3.268V10.065h3.168v1.327c.764-1.14 1.928-1.653 3.418-1.653zm14.77.326v12.133h-3.194v-1.34c-.789.977-1.966 1.653-3.631 1.653-3.344 0-5.873-2.742-5.873-6.386s2.53-6.386 5.873-6.386c1.665 0 2.83.676 3.631 1.666v-1.34h3.193zm-6.224 2.717c-1.916 0-3.13 1.49-3.13 3.343s1.214 3.344 3.13 3.344c1.866 0 3.13-1.428 3.13-3.344s-1.264-3.343-3.13-3.343z"/>
        <path fill="#5BD6E5" d="M13.913 25.043a6.957 6.957 0 1 0-13.913 0 6.957 6.957 0 0 0 13.913 0z"/>
        <path fill="#9ADF55" d="M13.912.933a6.957 6.957 0 0 0-2.546 9.503L21.8 28.51a6.957 6.957 0 0 0 12.05-6.957L23.414 3.479A6.957 6.957 0 0 0 13.912.933z"/>
        <path fill="#9ADF55" d="M13.862.933a6.957 6.957 0 0 0-2.546 9.503l5.852 10.136 12.05-6.956-5.853-10.137A6.957 6.957 0 0 0 13.862.933z"/>
    </g>
</svg>
