<?xml version="1.0" encoding="UTF-8"?>
<svg width="271px" height="76px" viewBox="0 0 271 76" version="1.1" xmlns="http://www.w3.org/2000/svg" xmlns:xlink="http://www.w3.org/1999/xlink">
    <!-- Generator: Sketch 51.1 (57501) - http://www.bohemiancoding.com/sketch -->
    <title>Anora-main-logo</title>
    <desc>Created with Sketch.</desc>
    <defs></defs>
    <g id="Logo-Design" stroke="none" stroke-width="1" fill="none" fill-rule="evenodd">
        <g id="Logo-main" transform="translate(-265.000000, -182.000000)">
            <g id="Anora-main-logo" transform="translate(264.000000, 182.000000)">
                <path d="M146.807657,23.9036523 L146.807657,52.7208744 L139.224178,52.7208744 L139.224178,49.5387869 C137.350612,51.8584395 134.555133,53.4643528 130.599828,53.4643528 C122.659479,53.4643528 116.652174,46.9514822 116.652174,38.2973938 C116.652174,29.6433054 122.659479,23.1304348 130.599828,23.1304348 C134.555133,23.1304348 137.320873,24.7363481 139.224178,27.0857398 L139.224178,23.9036523 L146.807657,23.9036523 Z M132.027307,30.3570447 C127.477219,30.3570447 124.592523,33.8960018 124.592523,38.2973938 C124.592523,42.6987858 127.477219,46.2377429 132.027307,46.2377429 C136.458438,46.2377429 139.462091,42.8474815 139.462091,38.2973938 C139.462091,33.7473061 136.458438,30.3570447 132.027307,30.3570447 Z M169.333394,23.1304348 C175.876004,23.1304348 180.545048,27.6805225 180.545048,34.3718279 L180.545048,52.7208744 L172.783134,52.7208744 L172.783134,36.8699153 C172.783134,32.7064364 170.701394,30.4165229 167.162437,30.4165229 C163.831654,30.4165229 161.065915,32.5874798 161.065915,36.9293936 L161.065915,52.7208744 L153.304,52.7208744 L153.304,23.9036523 L160.857741,23.9036523 L160.857741,27.2939137 C162.909741,24.2307828 166.062089,23.1304348 169.333394,23.1304348 Z M200.572698,23.1304348 C209.553917,23.1304348 216.185744,29.6135663 216.185744,38.2973938 C216.185744,46.9812213 209.553917,53.4643528 200.572698,53.4643528 C191.621218,53.4643528 185.01913,46.9812213 185.01913,38.2973938 C185.01913,29.6135663 191.621218,23.1304348 200.572698,23.1304348 Z M200.572698,30.3570447 C196.201045,30.3570447 192.92974,33.6283495 192.92974,38.2973938 C192.92974,42.966438 196.201045,46.2377429 200.572698,46.2377429 C204.944351,46.2377429 208.245395,42.966438 208.245395,38.2973938 C208.245395,33.6283495 204.944351,30.3570447 200.572698,30.3570447 Z M236.510785,23.1304348 C238.176177,23.1304348 239.484699,23.3683479 240.555308,23.7549566 L239.395482,31.4573927 C238.116699,30.8923491 236.272872,30.5354795 234.696698,30.5354795 C231.098263,30.5354795 228.629915,32.7361755 228.629915,37.018611 L228.629915,52.7208744 L220.868,52.7208744 L220.868,23.9036523 L228.392002,23.9036523 L228.392002,27.0560006 C230.206089,24.3497393 232.971828,23.1304348 236.510785,23.1304348 Z M271.58644,23.9036523 L271.58644,52.7208744 L264.00296,52.7208744 L264.00296,49.5387869 C262.129395,51.8584395 259.333916,53.4643528 255.378611,53.4643528 C247.438262,53.4643528 241.430957,46.9514822 241.430957,38.2973938 C241.430957,29.6433054 247.438262,23.1304348 255.378611,23.1304348 C259.333916,23.1304348 262.099656,24.7363481 264.00296,27.0857398 L264.00296,23.9036523 L271.58644,23.9036523 Z M256.806089,30.3570447 C252.256002,30.3570447 249.371306,33.8960018 249.371306,38.2973938 C249.371306,42.6987858 252.256002,46.2377429 256.806089,46.2377429 C261.237221,46.2377429 264.240873,42.8474815 264.240873,38.2973938 C264.240873,33.7473061 261.237221,30.3570447 256.806089,30.3570447 Z" id="anora-text" fill="#FFFFFF"></path>
                <g id="anora-logogram" transform="translate(42.108696, 38.000000) scale(-1, 1) translate(-42.108696, -38.000000) translate(0.608696, 0.000000)">
                    <path d="M49.5652174,59.4782609 C49.5652174,50.3535563 56.962252,42.9565217 66.0869565,42.9565217 C75.2116611,42.9565217 82.6086957,50.3535563 82.6086957,59.4782609 C82.6086957,68.6029654 75.2116611,76 66.0869565,76 C56.962252,76 49.5652174,68.6029654 49.5652174,59.4782609 Z" id="anora" fill="#5BD6E5"></path>
                    <path d="M49.5679761,2.21625205 C57.4702021,6.77860433 60.1777046,16.8831415 55.6153523,24.7853674 L30.8327437,67.7101048 C26.2703914,75.6123308 16.1658542,78.3198333 8.26362829,73.7574811 C0.361402334,69.1951288 -2.34610023,59.0905916 2.21625205,51.1883657 L26.9988607,8.26362829 C31.561213,0.361402334 41.6657502,-2.34610023 49.5679761,2.21625205 Z" id="anora" fill="#9ADF55" transform="translate(28.915802, 37.986867) rotate(-360.000000) translate(-28.915802, -37.986867) "></path>
                </g>
            </g>
        </g>
    </g>
</svg>